<svg width="148" height="49" viewBox="0 0 148 49" fill="none" xmlns="http://www.w3.org/2000/svg">
<g clip-path="url(#clip0_64_2968)">
<path d="M81.1136 48.1781H84.5243C94.7563 47.7417 101.919 40.9053 101.919 32.7599C101.919 29.9962 101.237 27.2326 99.7018 25.0508H81.1136V48.1781Z" fill="#D9F4FD"/>
<path d="M79.4083 24.9053H62.355V48.178H79.4083V24.9053Z" fill="#D9F4FD"/>
<path d="M98.6786 23.4507C96.9733 21.4143 94.5858 19.8143 92.0278 18.6507C95.0974 16.7598 97.1438 13.7053 97.1438 10.3598C97.1438 4.68707 91.8573 0.177979 85.2065 0.177979H81.1136V23.4507H98.6786Z" fill="#D9F4FD"/>
<path d="M79.4083 0.177979H62.355V23.4507H79.4083V0.177979Z" fill="#D9F4FD"/>
<path d="M127.158 48.1781H130.569C140.801 47.7417 147.963 40.9053 147.963 32.7599C147.963 29.9962 147.281 27.2326 145.746 25.0508H127.158V48.1781Z" fill="#D9F4FD"/>
<path d="M125.452 24.9053H108.399V48.178H125.452V24.9053Z" fill="#D9F4FD"/>
<path d="M144.723 23.4507C143.017 21.4143 140.63 19.8143 138.072 18.6507C141.142 16.7598 143.188 13.7053 143.188 10.3598C143.188 4.68707 137.901 0.177979 131.251 0.177979H127.158V23.4507H144.723Z" fill="#D9F4FD"/>
<path d="M125.452 0.177979H108.399V23.4507H125.452V0.177979Z" fill="#D9F4FD"/>
<path d="M10.6833 24.9053L0.962891 48.178H15.1172L19.21 37.9962H28.2483V24.9053H10.6833Z" fill="#D9F4FD"/>
<path d="M28.2483 0.177979H20.9154L11.1949 23.4507H28.2483V0.177979Z" fill="#D9F4FD"/>
<path d="M29.9536 37.9962H38.9919L43.0847 48.178H57.239L47.5186 24.9053H29.9536V37.9962Z" fill="#D9F4FD"/>
<path d="M47.007 23.4507L37.2866 0.177979H29.9536V23.4507H47.007Z" fill="#D9F4FD"/>
</g>
<defs>
<clipPath id="clip0_64_2968">
<rect width="147" height="48" fill="white" transform="translate(0.962891 0.177979)"/>
</clipPath>
</defs>
</svg>
