<svg width="323" height="49" viewBox="0 0 323 49" fill="none" xmlns="http://www.w3.org/2000/svg">
<g clip-path="url(#clip0_64_2785)">
<path opacity="0.868" fill-rule="evenodd" clip-rule="evenodd" d="M37.5672 -0.191406C38.0607 -0.191406 38.5542 -0.191406 39.0477 -0.191406C40.2788 5.21453 41.5125 10.6299 42.7488 16.0547C42.1888 19.0733 40.7083 21.5349 38.3075 23.4394C36.2389 17.8954 34.5117 12.2338 33.1259 6.45475C34.0092 3.84891 35.4897 1.63352 37.5672 -0.191406Z" fill="#D9F4FD"/>
<path opacity="0.836" fill-rule="evenodd" clip-rule="evenodd" d="M54.5926 2.76245C55.5507 3.90541 56.0441 5.38233 56.0731 7.19322C55.7843 10.8935 55.4142 14.5858 54.9627 18.2701C52.9968 20.1134 50.7761 21.5903 48.3007 22.7009C48.4294 17.5575 48.6762 12.3882 49.0409 7.19322C49.3179 6.51662 49.688 5.90124 50.1512 5.34707C51.8 4.65216 53.2805 3.79063 54.5926 2.76245Z" fill="#D9F4FD"/>
<path opacity="0.865" fill-rule="evenodd" clip-rule="evenodd" d="M18.3213 6.45459C22.4917 10.7406 26.563 15.1714 30.5351 19.7469C31.0071 20.5656 31.3772 21.4271 31.6454 22.3315C31.2543 24.4452 30.7609 26.5375 30.165 28.6084C25.4641 24.5344 21.1461 20.1036 17.2109 15.3161C16.6121 12.2185 16.9822 9.26466 18.3213 6.45459Z" fill="#D9F4FD"/>
<path opacity="0.841" fill-rule="evenodd" clip-rule="evenodd" d="M178.951 47.8086C177.224 47.8086 175.497 47.8086 173.77 47.8086C173.431 46.2898 172.691 46.2898 171.549 47.8086C169.575 47.8086 167.601 47.8086 165.627 47.8086C161.166 43.9328 159.562 39.0097 160.816 33.0394C162.614 25.3678 166.808 23.3985 173.399 27.1317C173.646 24.6702 173.893 22.2086 174.14 19.7471C175.6 18.9053 176.958 17.9206 178.211 16.7932C178.95 27.1199 179.198 37.4584 178.951 47.8086ZM169.328 29.3471C172.629 30.6355 173.863 33.0971 173.029 36.7317C173.749 40.1293 172.638 42.5909 169.698 44.1163C166.765 42.4476 165.408 39.863 165.627 36.3624C165.549 33.2306 166.783 30.8921 169.328 29.3471Z" fill="#D9F4FD"/>
<path opacity="0.851" fill-rule="evenodd" clip-rule="evenodd" d="M284.804 47.8086C282.83 47.8086 280.856 47.8086 278.882 47.8086C278.637 38.4418 278.883 29.088 279.623 19.7471C281.103 18.7625 282.583 17.7778 284.064 16.7932C284.803 27.1199 285.051 37.4584 284.804 47.8086Z" fill="#D9F4FD"/>
<path opacity="0.854" fill-rule="evenodd" clip-rule="evenodd" d="M90.1236 47.8086C87.4092 47.8086 84.6955 47.8086 81.9811 47.8086C74.8083 43.1444 72.2175 36.4983 74.2087 27.8702C77.2155 17.9415 83.5075 15.1107 93.0845 19.3779C94.5013 20.4215 95.4881 21.7753 96.0455 23.4394C94.565 24.424 93.0845 25.4086 91.6041 26.3932C89.8608 22.9924 87.1464 21.8847 83.4616 23.0702C79.2497 28.7296 78.7559 34.7603 81.9811 41.1625C85.9295 44.262 89.1369 43.5236 91.6041 38.9471C93.0845 39.9317 94.565 40.9163 96.0455 41.9009C94.7752 44.6453 92.801 46.6146 90.1236 47.8086Z" fill="#D9F4FD"/>
<path opacity="0.763" fill-rule="evenodd" clip-rule="evenodd" d="M184.133 17.5315C188.565 17.6526 189.552 19.4988 187.094 23.07C184.408 24.0418 182.681 23.1802 181.912 20.4853C182.41 19.2599 183.15 18.2753 184.133 17.5315Z" fill="#D9F4FD"/>
<path opacity="0.865" fill-rule="evenodd" clip-rule="evenodd" d="M248.533 47.8085C245.572 47.8085 242.611 47.8085 239.65 47.8085C237.354 46.8735 235.627 45.2735 234.468 43.0085C235.563 41.9169 236.673 40.8092 237.8 39.6855C240.495 43.1273 243.826 43.9888 247.793 42.2701C249.695 40.1178 249.449 38.1485 247.052 36.3624C243.438 35.5706 239.983 34.3399 236.689 32.6701C232.435 27.5384 232.928 22.8615 238.17 18.6393C242.476 17.0159 246.67 17.262 250.754 19.3778C253.788 22.1103 253.418 24.4488 249.643 26.3932C247.762 23.0195 244.924 21.9118 241.131 23.0701C239.156 24.7931 239.156 26.5163 241.131 28.2393C244.373 29.1094 247.58 30.0941 250.754 31.1932C254.618 34.8236 255.481 39.1313 253.344 44.1162C252.008 45.8337 250.404 47.0644 248.533 47.8085Z" fill="#D9F4FD"/>
<path opacity="0.857" fill-rule="evenodd" clip-rule="evenodd" d="M7.21782 21.2239C12.8729 24.2917 18.548 27.3685 24.2431 30.4546C26.7179 33.3572 27.8283 36.6802 27.5741 40.4239C21.4703 37.3179 15.4251 34.1179 9.43851 30.8239C7.56024 27.9247 6.82001 24.7247 7.21782 21.2239Z" fill="#D9F4FD"/>
<path opacity="0.834" fill-rule="evenodd" clip-rule="evenodd" d="M36.8271 47.8084C35.3466 47.8084 33.8662 47.8084 32.3857 47.8084C28.4328 39.8076 29.6665 32.7922 36.0869 26.7623C43.6726 23.6511 50.5814 24.7587 56.8133 30.0853C56.0432 31.4699 54.9329 32.4545 53.4823 33.0392C39.1989 28.2125 33.6472 33.1356 36.8271 47.8084Z" fill="#D9F4FD"/>
<path opacity="0.835" fill-rule="evenodd" clip-rule="evenodd" d="M116.772 47.8086C115.045 47.8086 113.317 47.8086 111.59 47.8086C110.842 45.0593 109.854 45.0593 108.629 47.8086C106.162 47.8086 103.694 47.8086 101.227 47.8086C96.3223 43.5604 96.3223 39.2528 101.227 34.8855C104.357 33.8426 107.564 33.2272 110.85 33.0394C111.008 31.8254 110.761 30.7177 110.11 29.7163C107.432 29.0029 104.964 29.3722 102.707 30.824C99.7858 28.3982 100.032 26.552 103.448 25.2855C106.162 24.7932 108.876 24.7932 111.59 25.2855C112.912 25.8648 114.023 26.7264 114.921 27.8701C115.784 34.4758 116.401 41.122 116.772 47.8086ZM105.668 37.4701C107.395 37.4701 109.123 37.4701 110.85 37.4701C111.034 40.7975 109.553 43.0129 106.409 44.1163C102.77 42.2236 102.523 40.0082 105.668 37.4701Z" fill="#D9F4FD"/>
<path opacity="0.829" fill-rule="evenodd" clip-rule="evenodd" d="M136.758 47.8084C135.031 47.8084 133.303 47.8084 131.576 47.8084C131.699 42.1415 131.576 36.48 131.206 30.8238C128.624 28.6369 126.65 29.1292 125.285 32.3007C124.914 37.4641 124.792 42.6334 124.914 47.8084C123.187 47.8084 121.46 47.8084 119.733 47.8084C119.733 40.1777 119.733 32.5469 119.733 24.9161C121.213 24.9161 122.694 24.9161 124.174 24.9161C123.826 28.2173 124.566 28.5866 126.395 26.0238C130.922 23.7768 134.253 24.8845 136.388 29.3469C136.758 35.4958 136.881 41.6497 136.758 47.8084Z" fill="#D9F4FD"/>
<path opacity="0.839" fill-rule="evenodd" clip-rule="evenodd" d="M158.225 47.8085C156.498 47.8085 154.77 47.8085 153.043 47.8085C153.159 46.7943 153.036 45.8097 152.673 44.8547C152.162 46.221 151.299 47.2057 150.082 47.8085C147.615 47.8085 145.147 47.8085 142.68 47.8085C137.541 42.342 138.281 37.7881 144.901 34.147C147.338 33.5373 149.805 33.1681 152.303 33.0393C152.461 31.8253 152.214 30.7176 151.563 29.7162C148.941 29.0876 146.474 29.4569 144.16 30.8239C143.234 29.7156 142.493 28.4848 141.94 27.1316C145.353 25.0652 149.054 24.4499 153.043 25.2855C154.615 26.1138 155.972 27.2215 157.114 28.6085C157.328 35.0272 157.698 41.4272 158.225 47.8085ZM147.121 37.4701C148.848 37.4701 150.576 37.4701 152.303 37.4701C152.513 42.5292 150.292 44.3753 145.641 43.0085C144.573 40.748 145.066 38.9018 147.121 37.4701Z" fill="#D9F4FD"/>
<path opacity="0.799" fill-rule="evenodd" clip-rule="evenodd" d="M187.834 47.8086C186.107 47.8086 184.379 47.8086 182.652 47.8086C182.652 40.1778 182.652 32.547 182.652 24.9163C184.379 24.9163 186.107 24.9163 187.834 24.9163C187.834 32.547 187.834 40.1778 187.834 47.8086Z" fill="#D9F4FD"/>
<path opacity="0.847" fill-rule="evenodd" clip-rule="evenodd" d="M210.041 47.8085C208.314 47.8085 206.586 47.8085 204.859 47.8085C204.754 44.3412 203.767 44.3412 201.898 47.8085C199.431 47.8085 196.963 47.8085 194.496 47.8085C189.128 42.2749 189.868 37.721 196.717 34.147C199.154 33.5373 201.621 33.1681 204.119 33.0393C204.277 31.8253 204.03 30.7176 203.379 29.7162C200.701 29.0029 198.233 29.3721 195.976 30.8239C195.05 29.7156 194.309 28.4848 193.756 27.1316C197.169 25.0652 200.87 24.4499 204.859 25.2855C206.181 25.8648 207.292 26.7263 208.19 27.8701C209.075 34.4653 209.692 41.1115 210.041 47.8085ZM198.937 37.4701C200.664 37.4701 202.392 37.4701 204.119 37.4701C204.448 40.8425 202.967 43.0579 199.678 44.1162C195.985 42.3297 195.738 40.1143 198.937 37.4701Z" fill="#D9F4FD"/>
<path opacity="0.821" fill-rule="evenodd" clip-rule="evenodd" d="M230.767 47.8086C229.04 47.8086 227.313 47.8086 225.586 47.8086C225.708 41.8958 225.586 35.9881 225.216 30.0855C222.005 28.5626 220.031 29.5472 219.294 33.0393C218.924 37.9562 218.801 42.8793 218.924 47.8086C217.197 47.8086 215.469 47.8086 213.742 47.8086C213.742 40.1778 213.742 32.547 213.742 24.9163C215.469 24.9163 217.197 24.9163 218.924 24.9163C218.813 25.6931 218.936 26.4316 219.294 27.1316C223.557 23.8363 227.259 24.3286 230.397 28.6086C230.767 35.0039 230.89 41.4038 230.767 47.8086Z" fill="#D9F4FD"/>
<path opacity="0.856" fill-rule="evenodd" clip-rule="evenodd" d="M270.74 47.8084C268.025 47.8084 265.312 47.8084 262.597 47.8084C256.413 42.8553 255.056 36.7014 258.526 29.3469C263.014 24.2417 268.072 23.6262 273.701 27.5007C276.86 32.4345 277.477 37.7269 275.551 43.3777C274.024 45.0275 272.421 46.5044 270.74 47.8084ZM264.818 29.3469C267.543 28.7748 269.394 29.7594 270.37 32.3007C271.117 36.0357 270.747 39.6049 269.259 43.0084C266.17 44.7323 264.072 43.8707 262.967 40.4238C262.061 36.3944 262.678 32.7021 264.818 29.3469Z" fill="#D9F4FD"/>
<path opacity="0.836" fill-rule="evenodd" clip-rule="evenodd" d="M305.53 47.8086C303.804 47.8086 302.076 47.8086 300.349 47.8086C300.188 45.1801 299.448 45.1801 298.128 47.8086C295.661 47.8086 293.193 47.8086 290.726 47.8086C285.85 43.568 285.85 39.2603 290.726 34.8855C293.856 33.8426 297.063 33.2272 300.349 33.0394C300.603 30.3559 299.37 29.1252 296.648 29.3471C294.939 29.2472 293.459 29.7395 292.206 30.824C290.399 29.7001 289.906 28.2231 290.726 26.3932C294.599 24.5559 298.547 24.4328 302.57 26.024C303.186 26.6394 303.804 27.2548 304.42 27.8702C305.467 34.4556 305.837 41.1018 305.53 47.8086ZM295.167 37.4702C296.894 37.4702 298.622 37.4702 300.349 37.4702C300.555 40.9995 298.951 43.2149 295.537 44.1163C293.842 43.6554 292.978 42.5477 292.947 40.7932C292.989 39.162 293.729 38.0543 295.167 37.4702Z" fill="#D9F4FD"/>
<path opacity="0.829" fill-rule="evenodd" clip-rule="evenodd" d="M322.556 25.6547C322.556 26.8855 322.556 28.1162 322.556 29.347C320.393 30.4745 318.049 31.213 315.524 31.5624C315.154 36.9722 315.031 42.3876 315.154 47.8086C313.179 47.8086 311.206 47.8086 309.232 47.8086C309.232 40.1778 309.232 32.547 309.232 24.9163C310.959 24.9163 312.686 24.9163 314.413 24.9163C314.297 25.9305 314.421 26.9151 314.783 27.8701C316.681 24.952 319.271 24.2135 322.556 25.6547Z" fill="#D9F4FD"/>
<path opacity="0.85" fill-rule="evenodd" clip-rule="evenodd" d="M0.555786 40.424C7.469 40.3011 14.3778 40.4242 21.2822 40.7932C24.221 42.3672 26.1949 44.7056 27.2041 47.8086C20.0485 47.8086 12.893 47.8086 5.7374 47.8086C3.76345 46.3317 2.03625 44.6087 0.555786 42.6394C0.555786 41.9009 0.555786 41.1625 0.555786 40.424Z" fill="#D9F4FD"/>
</g>
<defs>
<clipPath id="clip0_64_2785">
<rect width="322" height="48" fill="white" transform="translate(0.925903 0.177734)"/>
</clipPath>
</defs>
</svg>
