<svg width="399" height="399" viewBox="0 0 399 399" fill="none" xmlns="http://www.w3.org/2000/svg">
<path d="M99.7499 0H299.25L317.1 17.85H81.8999L99.7499 0Z" fill="#9FE221"/>
<path d="M299.25 399H99.7501L81.9001 381.15H317.1L299.25 399Z" fill="#9FE221"/>
<path d="M399 99.75L399 299.25L381.15 317.1L381.15 81.9L399 99.75Z" fill="#9FE221"/>
<path d="M7.80246e-07 299.25L9.50067e-06 99.7501L17.85 81.9001L17.85 317.1L7.80246e-07 299.25Z" fill="#9FE221"/>
<path fill-rule="evenodd" clip-rule="evenodd" d="M211.786 168.19L199.164 180.811L58.7998 40.4251L61.9497 37.8002L81.4099 37.8134L207.375 37.8134V73.3647C213.598 76.4573 217.875 82.8792 217.875 90.3001C217.875 100.738 209.413 109.2 198.975 109.2C188.537 109.2 180.075 100.738 180.075 90.3001C180.075 83.3044 183.876 77.1964 189.525 73.9285V55.6501L153.311 55.6501L107.625 55.6501L99.2466 55.6501L199.164 155.568L312.9 41.8323L310.275 37.8001L316.932 37.8001L336.525 37.8L338.625 41.3074L211.786 168.19Z" fill="#9FE221"/>
<path fill-rule="evenodd" clip-rule="evenodd" d="M185.639 231.022L198.261 218.4L338.625 358.786L335.475 361.411L316.015 361.398L190.05 361.398L190.05 325.847C183.827 322.754 179.55 316.332 179.55 308.911C179.55 298.473 188.012 290.011 198.45 290.011C208.888 290.011 217.35 298.473 217.35 308.911C217.35 315.907 213.549 322.015 207.9 325.283V343.561L244.114 343.561L289.8 343.561L298.178 343.561L198.261 243.643L84.525 357.379L87.15 361.411L80.4927 361.411L60.9 361.411L58.8 357.904L185.639 231.022Z" fill="#9FE221"/>
<path fill-rule="evenodd" clip-rule="evenodd" d="M230.128 212.68L217.507 200.058L357.893 59.6932L360.518 62.8431L360.505 82.3033L360.505 208.268L324.953 208.268C321.861 214.491 315.439 218.768 308.018 218.768C297.58 218.768 289.118 210.306 289.118 199.868C289.118 189.43 297.58 180.968 308.018 180.968C315.014 180.968 321.122 184.769 324.39 190.418L342.668 190.418L342.668 154.204L342.668 108.518L342.668 100.14L242.75 200.058L356.486 313.793L360.518 311.168L360.518 317.826L360.518 337.418L357.011 339.518L230.128 212.68Z" fill="#9FE221"/>
<path fill-rule="evenodd" clip-rule="evenodd" d="M167.297 186.532L179.918 199.154L39.5318 339.518L36.9069 336.368L36.92 316.908L36.92 190.943L72.4713 190.943C75.564 184.72 81.9859 180.443 89.4067 180.443C99.8449 180.443 108.307 188.905 108.307 199.343C108.307 209.781 99.8449 218.243 89.4067 218.243C82.4111 218.243 76.3031 214.442 73.0352 208.793L54.7567 208.793L54.7567 245.007L54.7568 290.693L54.7567 299.071L154.675 199.154L40.939 85.4181L36.9067 88.0431L36.9067 81.3858L36.9067 61.7931L40.4141 59.6931L167.297 186.532Z" fill="#9FE221"/>
</svg>
