<svg width="174" height="49" viewBox="0 0 174 49" fill="none" xmlns="http://www.w3.org/2000/svg">
<g clip-path="url(#clip0_64_2905)">
<path d="M78.6414 0.302002C37.9264 1.44546 5.34849 10.5491 1.33123 21.8811C-0.340185 26.6162 3.19324 31.4832 11.2717 35.588C38.117 49.2215 103.507 52.4027 145.087 42.0676C157.638 38.9597 166.376 35.0749 170.789 30.633C173.135 28.2728 174 26.5429 174 24.1827C174 22.0424 173.194 20.2392 171.302 18.2015C160.643 6.73762 121.16 -0.900097 78.6414 0.302002ZM51.0045 10.945C50.9898 11.0183 50.6379 11.8245 50.2127 12.7481L49.4357 14.434L39.8177 14.5073L30.1851 14.5806L29.7599 15.0204C29.496 15.2989 28.2351 17.8644 26.3731 21.9104C24.7457 25.4581 23.3089 28.5513 23.1916 28.7712L22.9863 29.1817L24.1152 29.1377L25.2295 29.0937L27.3848 24.4905C29.7599 19.389 30.0678 18.9199 31.6219 18.2015L32.4576 17.8057L40.1256 17.7617C46.2835 17.7324 47.7789 17.7617 47.7789 17.9083C47.7789 18.011 47.3977 18.8612 46.9286 19.7848L46.0929 21.4706L39.9937 21.5146L33.8945 21.5439L33.6012 21.8811C33.44 22.057 32.1937 24.6225 30.8302 27.5838L28.3671 32.9785H22.3852C19.101 32.9785 16.4033 32.9346 16.4033 32.8613C16.4033 32.8026 18.4706 28.3167 20.9777 22.878C24.3645 15.6068 25.7133 12.8361 26.1239 12.3816C26.4318 12.0151 27.0622 11.546 27.5754 11.2968L28.4697 10.8423H39.7444C45.9316 10.8423 51.0045 10.8863 51.0045 10.945ZM118.741 11.9711C118.741 12.0444 118.374 12.8947 117.905 13.8769L117.069 15.6801H114.621H112.158L112.495 14.9031C112.686 14.4926 113.081 13.6277 113.36 12.9973L113.888 11.8685H116.307C117.641 11.8685 118.741 11.9125 118.741 11.9711ZM63.76 17.879C63.76 17.967 63.3641 18.8172 62.8803 19.7848L62.0006 21.5439H57.9834C54.362 21.5439 53.9661 21.5733 53.7462 21.7932C53.6289 21.9398 52.3827 24.5199 50.9898 27.5105L48.468 32.9785H46.0635C44.0402 32.9785 43.659 32.9492 43.703 32.7733C43.7324 32.656 45.0666 29.7094 46.6793 26.2204C49.2011 20.767 49.6996 19.7848 50.2714 19.213C50.9312 18.524 51.7082 18.0696 52.5439 17.8644C53.2477 17.7031 63.76 17.7031 63.76 17.879ZM83.0692 18.1136C83.7583 18.6267 84.1395 19.3157 84.1395 20.034C84.1395 20.5764 83.7143 21.6026 81.8377 25.678C79.2719 31.2047 78.92 31.7618 77.4245 32.4948L76.5888 32.9052L69.8445 32.9492C63.892 32.9932 63.0269 32.9639 62.4844 32.7586C61.6487 32.4361 61.0916 31.7031 61.0183 30.8089C60.945 30.1639 61.1063 29.7681 63.2468 25.1356C64.5077 22.3942 65.7246 19.9314 65.9446 19.6528C66.5603 18.8759 67.3374 18.3041 68.1878 18.011C68.9062 17.7617 69.478 17.7471 75.8118 17.7764C82.4974 17.8057 82.6587 17.8057 83.0692 18.1136ZM105.062 17.967C105.795 18.3188 106.308 19.0811 106.381 19.9021C106.44 20.5471 106.234 21.0309 103.595 26.7481L100.751 32.9052L98.3026 32.9492C96.9684 32.9639 95.8687 32.9492 95.8687 32.9052C95.8687 32.8613 96.9977 30.4131 98.3612 27.4518C99.7394 24.4905 100.854 21.9544 100.854 21.8078C100.854 21.5586 100.604 21.5439 96.4992 21.5439H92.1301L89.5789 27.0853C88.1714 30.1199 86.9545 32.7 86.8519 32.8026C86.7346 32.9346 86.0895 32.9785 84.3301 32.9492L81.9696 32.9052L85.1072 26.0885C86.8372 22.3356 88.4207 18.9199 88.6113 18.4947L88.9632 17.7324H96.7484C103.669 17.7324 104.607 17.7617 105.062 17.967ZM116.014 17.9377C115.97 18.0403 114.401 21.456 112.524 25.5167L109.108 32.9052L106.66 32.9492C105.267 32.9639 104.226 32.9346 104.226 32.8466C104.226 32.7293 110.941 18.2748 111.161 17.9083C111.337 17.6298 116.116 17.6591 116.014 17.9377ZM124.459 17.7764C124.459 17.8057 123.315 20.2832 121.908 23.3031C120.515 26.323 119.4 28.8738 119.43 28.9764C119.547 29.2696 127.64 29.255 128.051 28.9618C128.227 28.8445 129.458 26.3377 130.895 23.2445L133.446 17.7324H135.851C137.185 17.7324 138.241 17.7911 138.211 17.8644C138.197 17.923 136.848 20.8403 135.235 24.3293C132.009 31.3366 131.76 31.7325 130.206 32.4948L129.37 32.9052L122.919 32.9492C119.371 32.9785 116.19 32.9492 115.838 32.9052C114.562 32.7147 113.551 31.3073 113.873 30.1492C113.946 29.9 115.251 26.9974 116.761 23.6989L119.518 17.7324H121.996C123.344 17.7324 124.459 17.7471 124.459 17.7764ZM160.541 18.0549C160.467 18.2455 160.072 19.0958 159.661 19.9607L158.913 21.5439H152.022C147.36 21.5439 145.014 21.6026 144.824 21.7052C144.648 21.7932 144.369 22.2036 144.164 22.6141L143.812 23.3764L149.442 23.4497C155.834 23.5377 155.57 23.479 156.245 24.7837C156.729 25.7073 156.626 26.2644 155.439 28.7419C154.31 31.0728 153.738 31.8497 152.653 32.3921L151.949 32.7586L143.269 32.8026C138.49 32.8173 134.575 32.8026 134.575 32.7733C134.575 32.7293 134.927 31.923 135.367 30.9701L136.159 29.2403L143.108 29.167C146.92 29.123 150.131 29.0351 150.234 28.9764C150.424 28.8445 151.143 27.5105 151.143 27.2759C151.143 27.1733 149.163 27.1146 145.586 27.0853C139.267 27.0413 139.531 27.0853 138.856 25.7806C138.372 24.8717 138.475 24.4172 139.721 21.7492C140.938 19.1544 141.451 18.5094 142.654 18.0549C143.416 17.7617 143.724 17.7471 152.052 17.7471L160.673 17.7324L160.541 18.0549Z" fill="#D9F4FD"/>
<path d="M69.8885 21.7931C69.7566 21.9397 68.9502 23.567 68.0998 25.4141C66.8976 28.0089 66.5897 28.8151 66.707 28.9617C66.9562 29.2549 74.8588 29.2549 75.24 28.9617C75.5626 28.7125 78.5682 22.3209 78.5682 21.8664V21.5439H74.3456C70.4897 21.5439 70.0938 21.5732 69.8885 21.7931Z" fill="#D9F4FD"/>
</g>
<defs>
<clipPath id="clip0_64_2905">
<rect width="173.074" height="48.0002" fill="white" transform="translate(0.925903 0.177734)"/>
</clipPath>
</defs>
</svg>
