<svg width="211" height="49" viewBox="0 0 211 49" fill="none" xmlns="http://www.w3.org/2000/svg">
<path d="M0.962891 24.1777V48.1774H88.0403C182.144 48.1774 176.298 48.2352 179.705 47.1943C182.879 46.2497 186.518 44.0329 189.015 41.5462C191.705 38.8474 192.073 38.2113 201.789 18.7994C206.84 8.73691 210.963 0.428577 210.963 0.332195C210.963 0.255085 163.718 0.177979 105.963 0.177979H0.962891V24.1777ZM44.2403 6.63573C43.8919 7.46464 42.2468 10.3176 40.0984 13.8067L38.4145 16.544L37.3887 16.5633C36.6145 16.5633 36.4016 16.5055 36.4984 16.3127C37.0016 15.5031 41.6081 9.02607 42.75 7.54174C44.1435 5.76827 44.7629 5.38274 44.2403 6.63573ZM61.4468 21.2862V32.8523H58.7371H56.0274L55.9693 21.2283L55.9306 9.60437L58.679 9.6622L61.4468 9.72003V21.2862ZM182.705 10.0285C183.866 10.5489 184.234 10.8959 184.756 12.0333C186.285 15.2525 183.673 18.9922 180.382 18.279C179.24 18.0284 177.963 16.9874 177.46 15.9079C176.453 13.6718 177.595 10.7224 179.802 9.83569C180.595 9.52726 181.776 9.60437 182.705 10.0285ZM73.621 19.05L76.7371 23.9656L76.7952 19.0115L76.8339 14.0573H79.4468H82.0597L82.021 23.4452L81.9629 32.8523L79.5629 32.9101C78.0532 32.9487 77.0855 32.8908 76.9306 32.7559C76.7758 32.6402 75.2855 30.3656 73.6016 27.6861L70.5435 22.8476L70.4468 27.8403L70.35 32.8523H67.8339H65.3177L65.2597 23.4452L65.221 14.0381L67.8532 14.0959L70.4855 14.1537L73.621 19.05ZM89.7629 14.6742C89.879 15.0212 90.6532 17.7778 91.5242 20.8042C92.3951 23.8307 93.15 26.4524 93.2081 26.6644C93.2661 26.8572 93.4016 26.9343 93.479 26.8572C93.5564 26.7608 94.4468 23.85 95.4339 20.3609L97.2339 14.0573H100.002C101.531 14.0573 102.769 14.1344 102.769 14.2115C102.769 14.3079 102.305 15.7151 101.724 17.3537C101.163 18.9922 99.75 23.0596 98.6081 26.3945C97.4661 29.7294 96.4403 32.5824 96.3242 32.6981C96.0532 33.0451 90.6919 33.0451 90.4403 32.6981C90.3242 32.5824 88.8339 28.4379 87.0919 23.503C85.3693 18.5681 83.8984 14.4236 83.8597 14.2887C83.7822 14.1152 84.421 14.0573 86.6661 14.0573H89.5887L89.7629 14.6742ZM119.027 16.0814V18.1055H114.479H109.931V19.5512V20.997H114.189H118.466L118.408 22.9632L118.35 24.9488L114.15 25.0066L109.931 25.0451V26.6837V28.3222H114.46C118.098 28.3222 119.027 28.38 119.202 28.5921C119.356 28.7656 119.415 29.5559 119.376 30.8475L119.318 32.8523H111.866H104.415L104.356 23.4452L104.318 14.0573H111.673H119.027V16.0814ZM134.666 14.3465C135.866 14.7127 136.892 15.5416 137.473 16.6404C137.821 17.2958 137.898 17.7392 137.898 19.2621C137.898 20.9199 137.84 21.1898 137.376 21.9994C136.756 23.0404 135.673 23.9849 134.744 24.2934L134.085 24.5054L134.647 24.8331C135.673 25.4692 136.505 26.6837 137.937 29.5752C138.711 31.1559 139.35 32.5824 139.35 32.7173C139.35 32.9101 138.673 32.9487 136.311 32.9101L133.253 32.8523L131.453 29.3632C129.905 26.3174 129.576 25.8162 129.015 25.5463C127.718 24.9295 127.756 24.8331 127.698 29.0355L127.64 32.8523H124.931H122.221L122.163 23.4452L122.124 14.0573H127.892C132.537 14.0573 133.873 14.1152 134.666 14.3465ZM155.608 16.0814V18.1055H151.156H146.705V19.5512V20.997H150.769H154.834V23.0211V25.0451H150.769H146.705V26.6837V28.3222H151.253H155.802V30.6354V32.9487H148.447H141.092V23.503V14.0573H148.35H155.608V16.0814ZM164.434 15.7344C164.937 16.679 165.615 17.932 165.944 18.5296L166.563 19.6283L167.995 16.8525L169.447 14.0573H172.485H175.524L172.931 18.3753C171.498 20.7464 170.279 22.809 170.221 22.9632C170.163 23.1175 171.324 25.1801 172.95 27.7632C174.518 30.2306 175.834 32.4282 175.892 32.621C175.969 32.9294 175.776 32.9487 172.911 32.9101L169.853 32.8523L168.266 30.0571C167.395 28.5343 166.602 27.2427 166.505 27.2234C166.408 27.1849 165.692 28.2644 164.898 29.6138C164.124 30.9824 163.369 32.274 163.215 32.5053C162.963 32.9294 162.847 32.9487 160.06 32.9487C158.473 32.9487 157.137 32.8908 157.079 32.7945C156.982 32.6402 157.137 32.3896 160.582 26.7801C161.782 24.8331 162.769 23.1367 162.769 23.0211C162.769 22.9054 161.589 20.8813 160.156 18.5296C158.724 16.1585 157.544 14.1923 157.544 14.1537C157.544 14.0959 158.898 14.0573 160.524 14.0573H163.524L164.434 15.7344ZM26.55 17.373C26.9177 17.6814 28.8919 23.0789 28.7564 23.4452C28.6984 23.5801 28.4468 23.6958 28.1758 23.6958C27.8081 23.6958 27.6532 23.5223 27.4016 22.9247L27.0919 22.1343L25.9887 22.1922C24.9435 22.25 24.8855 22.2693 24.6919 22.8861C24.5758 23.2331 24.3435 23.5994 24.1887 23.6958C23.879 23.8885 23.221 23.5994 23.221 23.2524C23.221 22.7898 25.3306 17.4501 25.5822 17.2958C25.9306 17.0838 26.2016 17.1031 26.55 17.373ZM37.2919 17.6428C38.1048 18.2404 38.3951 18.9344 38.1242 19.7247C37.7952 20.7271 37.2919 21.0548 35.9951 21.1512L34.8339 21.2283V22.3657C34.8339 23.2717 34.7564 23.5223 34.4661 23.6958C34.1758 23.8307 34.021 23.8114 33.7887 23.5801C33.5371 23.3488 33.479 22.7898 33.479 20.65C33.479 17.2187 33.5564 17.0645 35.4339 17.1802C36.3822 17.238 36.9048 17.3537 37.2919 17.6428ZM47.4145 17.6236C47.7822 18.0669 47.3177 18.491 46.4274 18.491H45.6726V20.997C45.6726 23.156 45.6339 23.503 45.3435 23.6765C45.1306 23.7922 44.879 23.7922 44.6661 23.6765C44.3564 23.503 44.3177 23.1946 44.3177 20.997V18.491H43.4661C42.5951 18.491 42.2855 18.2019 42.4984 17.6236C42.5951 17.3922 43.0403 17.3344 44.8984 17.3344C46.679 17.3344 47.221 17.3922 47.4145 17.6236ZM33.3629 24.1199C33.2661 24.2548 32.2597 25.7584 31.0984 27.4548C26.2403 34.5294 24.0145 37.4595 23.7048 37.1703C23.4726 36.9197 26.8984 30.9824 30.1113 26.0475L31.5242 23.8885H32.5113C33.2468 23.8885 33.4597 23.9464 33.3629 24.1199ZM175.698 36.9968C176.163 36.9968 176.085 37.1125 174.711 38.5004L173.221 39.9847V41.4883V42.9919L172.505 42.9341L171.769 42.8763L171.673 41.2763L171.576 39.6763L170.124 38.3462L168.673 37.0161L169.737 36.9968C170.724 36.9968 170.84 37.0546 171.615 37.8064L172.447 38.6161L173.279 37.8257C174.15 36.9968 174.518 36.7848 174.924 36.9197C175.079 36.9583 175.427 36.9968 175.698 36.9968ZM96.6532 37.4209C96.8274 37.6522 96.9629 38.0956 96.9629 38.3847C96.9629 38.8667 96.9048 38.9245 96.2855 38.9245C95.8597 38.9245 95.55 38.8088 95.4919 38.6353C95.3951 38.404 95.0274 38.3462 93.8661 38.3462C92.9758 38.3462 92.279 38.4426 92.2016 38.5582C91.9306 39.0016 92.5693 39.2137 94.2339 39.2329C95.55 39.2329 96.0726 39.3293 96.479 39.5799C96.9822 39.9076 97.0016 39.9847 96.9242 41.1799C96.8081 42.8955 96.6919 42.9726 93.8274 42.9726C91.7758 42.9726 91.5048 42.9341 91.1371 42.5678C90.5564 41.9895 90.6919 40.9678 91.3693 40.8907C91.6597 40.8522 91.9887 40.9871 92.221 41.2377C92.5113 41.5462 92.8016 41.6233 93.8661 41.6233C94.7758 41.6233 95.2403 41.5462 95.4145 41.3341C95.8403 40.8136 95.4145 40.6594 93.6532 40.6594C91.9887 40.6594 91.2339 40.4859 90.9242 40.004C90.8468 39.8883 90.7693 39.3293 90.7693 38.751C90.7693 37.0932 90.9242 36.9968 93.8855 36.9968C96.2274 36.9968 96.3822 37.0161 96.6532 37.4209ZM104.202 37.4209C104.434 37.7486 104.511 38.3655 104.511 39.9462C104.511 41.8931 104.473 42.0474 104.027 42.4907C103.582 42.9534 103.427 42.9726 101.453 42.9726C99.6145 42.9726 99.2661 42.9148 98.821 42.5678C98.3371 42.1823 98.3177 42.1245 98.3177 39.9462C98.3177 36.9197 98.2403 36.9968 101.434 36.9968C103.776 36.9968 103.931 37.0161 104.202 37.4209ZM107.221 39.31V41.6233H109.64H112.06V42.298V42.9726H108.963H105.866V39.9847V36.9968H106.544H107.221V39.31ZM117.537 39.9847L119.027 42.9726H118.369C118.021 42.9726 117.615 42.8377 117.479 42.6835C117.305 42.4714 116.84 42.3943 115.834 42.3943C114.75 42.3943 114.402 42.4714 114.305 42.6835C114.208 42.9534 112.834 43.1269 112.834 42.8763C112.834 42.6257 115.756 36.9968 115.892 36.9968C115.969 36.9968 116.705 38.3462 117.537 39.9847ZM125.453 37.3245C125.705 37.5558 125.802 37.9221 125.802 38.751C125.802 39.8305 125.569 40.3124 125.008 40.5052C124.873 40.5438 125.26 41.045 125.86 41.604C126.479 42.1823 126.963 42.722 126.963 42.7992C126.963 42.8955 126.556 42.9726 126.053 42.9726C125.144 42.9726 125.085 42.9341 123.344 41.1992C122.356 40.2161 121.544 39.3486 121.544 39.2715C121.544 39.1751 122.202 39.1173 123.015 39.1173C124.292 39.1173 124.466 39.0787 124.408 38.7703C124.35 38.5004 124.079 38.4426 122.647 38.3847L120.963 38.3269V40.6594V42.9919L120.344 42.9341L119.705 42.8763L119.647 39.9269L119.589 36.9968H122.337C124.64 36.9968 125.163 37.0546 125.453 37.3245ZM137.415 37.6715V38.3462H134.995C132.711 38.3462 132.576 38.3655 132.576 38.7317C132.576 39.0787 132.731 39.1173 134.376 39.1558L136.156 39.2137V39.8883V40.563L134.376 40.6209C132.615 40.6787 132.576 40.6787 132.576 41.1413V41.6233H134.995H137.415V42.298V42.9726H134.318H131.221V39.9847V36.9968H134.318H137.415V37.6715ZM142.079 38.8667L143.995 40.7172V38.8667V36.9968H144.769H145.544V39.9847V42.9726H144.847C144.208 42.9726 143.937 42.7799 142.137 41.0064L140.124 39.0402V41.0064V42.9726H139.447H138.769V39.9847V36.9968H139.466C140.066 36.9968 140.376 37.2089 142.079 38.8667ZM153.092 37.6715V38.3462H150.673C148.389 38.3462 148.253 38.3655 148.253 38.7317C148.253 39.0787 148.408 39.1173 150.053 39.1558L151.834 39.2137V39.8883V40.563L150.053 40.6209C148.292 40.6787 148.253 40.6787 148.253 41.1413V41.6233H150.673H153.092V42.298V42.9726H149.995H146.898V39.9847V36.9968H149.995H153.092V37.6715ZM160.234 37.498C160.834 38.2691 160.795 39.5606 160.137 40.2161L159.634 40.7172L160.756 41.8353L161.879 42.9726H160.853H159.808L158.008 41.1992C157.021 40.2353 156.247 39.3679 156.305 39.2715C156.363 39.1944 157.002 39.1173 157.756 39.1173C158.956 39.1173 159.092 39.0787 159.092 38.7317C159.092 38.3847 158.956 38.3462 157.447 38.3462H155.802V40.6594V42.9726H155.124H154.447V39.9847V36.9968H157.137C159.827 36.9968 159.847 36.9968 160.234 37.498ZM167.802 37.5173C168.363 38.2305 168.247 38.8088 167.511 38.8859C167.163 38.9245 166.873 38.8474 166.718 38.6353C166.524 38.3847 166.195 38.3462 164.976 38.3847L163.447 38.4426L163.389 39.9269C163.331 41.3534 163.35 41.4305 163.795 41.5269C164.027 41.5847 164.763 41.6233 165.382 41.5847C166.408 41.5269 166.544 41.4883 166.602 41.0835C166.66 40.6787 166.602 40.6594 165.479 40.6594H164.298L164.356 39.9269L164.415 39.2137H166.253H168.092V40.7172C168.092 42.8377 167.918 42.9726 165.015 42.9726C161.956 42.9726 161.995 43.0112 161.995 40.0426C161.995 36.9197 161.918 36.9968 165.015 36.9968C167.356 36.9968 167.395 36.9968 167.802 37.5173Z" fill="#D9F4FD"/>
<path d="M179.531 11.0115C177.46 12.2259 177.344 15.368 179.337 16.8716C179.937 17.3343 180.247 17.4307 181.156 17.4307C182.047 17.4307 182.376 17.3343 182.937 16.9102C184.776 15.5223 184.815 12.3994 183.034 11.1271C182.144 10.491 180.518 10.4332 179.531 11.0115ZM181.834 11.8404C182.918 12.2837 183.111 13.344 182.24 13.9994L181.815 14.3271L182.453 15.2717C183.227 16.409 183.247 16.5632 182.608 16.5632C182.24 16.5632 182.027 16.3704 181.66 15.6186C181.311 14.9439 181.04 14.6548 180.673 14.597C180.208 14.5006 180.189 14.5199 180.189 15.5415C180.189 16.5247 180.15 16.5825 179.763 16.5247C179.337 16.4668 179.318 16.3897 179.26 14.2693C179.24 13.0548 179.26 11.9368 179.298 11.8018C179.434 11.4548 180.982 11.4741 181.834 11.8404Z" fill="#D9F4FD"/>
<path d="M180.189 13.0936C180.189 13.614 180.247 13.6719 180.847 13.6719C181.582 13.6719 182.008 13.3056 181.815 12.8237C181.737 12.6116 181.466 12.5153 180.944 12.5153C180.227 12.5153 180.189 12.5538 180.189 13.0936Z" fill="#D9F4FD"/>
<path d="M127.737 19.7632V21.6138L129.479 21.5367C131.647 21.4403 132.247 21.0933 132.344 19.8789C132.382 19.4355 132.305 18.915 132.189 18.703C131.918 18.1825 130.853 17.9126 129.15 17.9126H127.737V19.7632Z" fill="#D9F4FD"/>
<path d="M25.7757 19.8212C25.4467 20.8814 25.4854 20.9971 26.1241 20.9971H26.6854L26.4144 20.1103C26.279 19.6284 26.1241 19.185 26.0661 19.1465C26.0273 19.1079 25.8919 19.3971 25.7757 19.8212Z" fill="#D9F4FD"/>
<path d="M34.8339 19.1657V20.0332H35.5693C36.3629 20.0332 36.7693 19.7633 36.7693 19.2429C36.7693 18.7802 36.0339 18.2983 35.3758 18.2983C34.8726 18.2983 34.8339 18.3368 34.8339 19.1657Z" fill="#D9F4FD"/>
<path d="M99.808 38.4812C99.5758 38.6933 99.6532 41.1414 99.9048 41.392C100.176 41.6619 102.692 41.7005 102.866 41.4306C103.06 41.1029 103.214 39.368 103.079 38.8475C102.963 38.3656 102.905 38.3463 101.434 38.3463C100.602 38.3463 99.8661 38.4041 99.808 38.4812Z" fill="#D9F4FD"/>
<path d="M115.582 40.1776C115.273 40.8523 115.273 40.8523 115.931 40.8523H116.531L116.221 40.274C116.047 39.9463 115.892 39.6957 115.853 39.6957C115.834 39.6957 115.698 39.9077 115.582 40.1776Z" fill="#D9F4FD"/>
</svg>
