<svg width="267" height="49" viewBox="0 0 267 49" fill="none" xmlns="http://www.w3.org/2000/svg">
<path d="M34.1603 16.0338C34.1603 31.0248 34.016 32.178 30.5519 35.4933C27.3765 38.8086 25.9331 39.0969 13.9532 39.0969H0.962891V43.5654V48.178L14.5305 47.3131C29.6859 46.4482 34.5933 44.7185 39.0677 38.6645C41.6658 35.205 42.2431 32.0338 42.6762 17.3311L43.1092 0.177979H38.6347H34.1603V16.0338Z" fill="#D9F4FD"/>
<path d="M73.5642 1.18704C71.8321 1.76362 48.4496 39.8177 46.4289 45.2952C45.5629 47.169 46.1402 47.7456 48.8826 47.7456C54.0787 47.7456 55.9551 45.5834 65.9143 28.5744C70.9661 20.0699 75.5849 13.151 76.1622 13.151C76.7396 13.151 78.9046 16.0339 80.781 19.6375L84.5337 26.124H78.1829C73.2755 26.124 71.3991 26.8447 69.5227 29.2952L67.2134 32.6105L78.4716 33.3312L89.5855 34.0519L93.3383 40.5384C96.5137 45.8717 97.957 47.169 101.854 47.4573C107.916 48.0339 108.205 48.4663 92.6166 22.3762C82.6574 5.65551 77.7499 -0.686832 75.5849 0.322178C75.4405 0.322178 74.4302 0.754608 73.5642 1.18704Z" fill="#D9F4FD"/>
<path d="M117.876 14.5923C111.813 20.6464 115.71 27.8536 126.391 30.4482C134.186 32.3221 137.217 34.6284 136.351 38.5203C135.196 44.7185 120.618 43.8536 118.597 37.5112C117.587 34.3401 113.545 33.7635 113.545 36.7905C113.545 37.9437 115.133 40.6824 117.009 42.8446C119.896 46.304 121.484 46.8806 127.69 46.8806C136.784 46.8806 140.969 43.7094 140.969 36.7905C140.969 31.7455 137.938 28.8626 130.866 26.8446C119.03 23.6734 116.576 20.7905 122.639 16.8986C126.68 14.1599 133.897 15.4572 134.763 19.0608C135.773 22.6644 139.526 22.5203 139.526 19.0608C139.526 12.1419 123.649 8.82656 117.876 14.5923Z" fill="#D9F4FD"/>
<path d="M149.918 14.0158C139.093 21.5112 140.536 40.9707 152.228 45.8716C158.723 48.6103 167.094 47.1689 171.424 42.5563C178.064 35.4932 176.332 17.3311 168.538 13.1509C164.352 10.9887 153.527 11.4212 149.918 14.0158ZM167.527 18.9167C168.971 20.3581 170.414 24.3941 170.847 27.9977C171.569 33.9076 171.136 35.0608 167.239 39.0968C164.785 41.4031 161.321 43.4212 159.444 43.4212C150.784 43.4212 145.3 33.6194 148.475 23.8176C151.506 14.7365 160.744 12.286 167.527 18.9167Z" fill="#D9F4FD"/>
<path d="M178.497 29.0069V46.3042H189.322C197.982 46.3042 200.147 45.8718 200.147 44.142C200.147 42.4123 198.271 41.9799 192.209 41.9799H184.27V26.8447C184.27 12.7186 184.126 11.7096 181.384 11.7096C178.641 11.7096 178.497 12.7186 178.497 29.0069Z" fill="#D9F4FD"/>
<path d="M209.529 27.8538C206.354 36.7907 203.467 44.5745 203.178 45.2952C202.89 46.0159 203.9 46.3042 205.343 46.0159C206.931 45.7276 208.519 43.5655 209.385 40.8267C210.684 36.07 210.828 36.07 218.767 36.5024C226.417 36.9348 226.85 37.079 228.149 41.5474C229.015 44.8628 230.314 46.3042 232.334 46.3042C233.922 46.3042 234.788 45.5835 234.355 44.4303C222.808 14.4483 221.509 11.7096 218.478 11.7096C215.736 11.7096 214.437 14.0159 209.529 27.8538ZM222.519 26.124L224.54 31.8898H218.622C214.292 31.8898 212.993 31.4574 213.571 29.8718C214.004 28.7186 215.158 25.115 216.169 21.7997C218.189 15.3132 218.911 15.7456 222.519 26.124Z" fill="#D9F4FD"/>
<path d="M237.675 29.0069C237.675 43.4213 238.108 46.3042 239.84 46.3042C241.428 46.3042 242.005 44.5745 242.005 38.9528V31.7456L247.49 32.1781C252.108 32.6105 253.407 33.4754 257.16 39.3853C260.191 44.142 262.501 46.1601 264.81 46.1601C267.985 46.3042 267.841 46.0159 263.078 38.8087L258.026 31.4574L261.49 28.142C265.82 24.106 266.109 18.4844 262.212 14.5925C259.903 12.2862 257.449 11.7096 248.5 11.7096H237.675V29.0069ZM259.47 19.2051C261.923 23.6736 256.727 27.5655 248.356 27.5655H242.005V21.7997V16.0339H249.943C256.583 16.0339 258.026 16.4664 259.47 19.2051Z" fill="#D9F4FD"/>
</svg>
