<svg width="128" height="49" viewBox="0 0 128 49" fill="none" xmlns="http://www.w3.org/2000/svg">
<path fill-rule="evenodd" clip-rule="evenodd" d="M37.3981 17.1641C28.9075 17.1641 22.0294 24.106 22.0294 32.6623C22.0294 35.001 22.5395 37.2044 23.4517 39.1853H9.90308V18.22H0.962891V47.3882H20.3002L24.3682 40.8957C27.0831 45.2721 31.8947 48.178 37.3981 48.178C45.8843 48.178 52.7624 41.2273 52.7624 32.6579C52.7667 24.106 45.8843 17.1641 37.3981 17.1641ZM37.3981 39.9925C33.3862 39.9925 30.1396 36.7201 30.1396 32.6623C30.1396 28.6263 33.3862 25.3451 37.3981 25.3451C41.4056 25.3451 44.6522 28.6219 44.6522 32.6623C44.6522 36.7201 41.4056 39.9925 37.3981 39.9925ZM74.9616 36.1223L64.1668 18.22H63.086H56.2987H55.2222V47.3926H63.0903V29.4859L73.8938 47.3882H82.8383V18.22H74.9659V36.1223H74.9616ZM115.75 29.9571H115.495H107.817H100.615V35.1363H107.904C106.888 38.2167 104.009 40.4332 100.615 40.4332C96.3653 40.4332 92.9154 36.9601 92.9154 32.6623C92.9154 28.382 96.3653 24.9045 100.615 24.9045C102.647 24.9045 104.493 25.7073 105.867 27.0075H114.924C112.681 21.235 107.117 17.1641 100.615 17.1641C92.1286 17.1641 85.2549 24.106 85.2549 32.6623C85.2549 41.2317 92.1286 48.178 100.615 48.178C109.101 48.178 115.975 41.2273 115.975 32.6623C115.975 31.7504 115.897 30.8385 115.75 29.9571ZM127.963 9.20988H118.984V0.177979H127.963V9.20988ZM127.963 48.1213H118.984V18.0804H127.963V48.1213Z" fill="#D9F4FD"/>
</svg>
