<svg width="213" height="49" viewBox="0 0 213 49" fill="none" xmlns="http://www.w3.org/2000/svg">
<path d="M19.723 0.736916C17.0996 1.32682 14.0797 2.53769 12.1274 3.81065C10.5717 4.83523 10.4192 5.02152 10.4192 6.0461C10.4192 6.85334 10.6632 7.38116 11.3038 8.06421L12.1884 8.9646H17.0996C19.784 8.9646 22.3158 8.84041 22.7734 8.65412C23.9631 8.1884 24.4511 6.66706 24.4511 3.22074V0.271197L23.0174 0.302245C22.1938 0.302245 20.7296 0.51958 19.723 0.736916Z" fill="#D9F4FD"/>
<path d="M24.8172 3.81065C24.9087 7.38116 24.9392 7.4743 25.7628 8.21945C26.5865 8.93355 26.7695 8.9646 31.8027 8.9646H37.0189L37.9035 8.06421C39.2457 6.69811 39.1542 5.23886 37.629 4.24532C34.4566 2.10302 30.552 0.674819 26.9525 0.364341L24.6952 0.178054L24.8172 3.81065Z" fill="#D9F4FD"/>
<path d="M7.97891 7.10175C6.78924 8.31262 6.4537 8.80939 6.78924 8.90253C8.16194 9.18196 9.96169 7.50537 9.74816 6.13927C9.65664 5.48726 9.50412 5.58041 7.97891 7.10175Z" fill="#D9F4FD"/>
<path d="M39.3982 6.20138C39.3982 7.3191 40.4353 8.56102 41.564 8.8094C42.0826 8.93359 42.5401 8.96464 42.6011 8.90255C42.6927 8.84045 41.9911 8.00216 41.0759 7.10177C39.4897 5.51833 39.3982 5.45623 39.3982 6.20138Z" fill="#D9F4FD"/>
<path d="M206.714 9.2439C205.189 10.0511 204.426 11.2931 204.426 13.0628C204.426 17.4716 210.07 18.9308 212.357 15.1119C214.523 11.4793 210.466 7.31893 206.714 9.2439ZM210.222 10.1132C211.259 10.7342 211.747 11.7277 211.747 13.187C211.747 14.6152 211.32 15.3603 210.222 15.9502C208.422 16.8817 206.714 16.3539 205.799 14.5531C205.219 13.4043 205.219 12.5971 205.799 11.4483C206.653 9.74067 208.636 9.15076 210.222 10.1132Z" fill="#D9F4FD"/>
<path d="M206.867 13.0007C206.867 14.9567 206.928 15.1741 207.477 15.1741C207.934 15.1741 208.087 14.9567 208.087 14.3979C208.087 13.9011 208.27 13.6217 208.544 13.6217C208.819 13.6217 209.154 13.9632 209.307 14.3979C209.459 14.8325 209.825 15.1741 210.1 15.1741C210.497 15.1741 210.558 14.9878 210.375 14.3358C210.283 13.8701 210.039 13.3733 209.856 13.2802C209.703 13.156 209.764 13.0007 210.039 12.9076C210.71 12.6281 210.649 11.5415 209.948 11.1378C209.612 10.9826 208.788 10.8274 208.117 10.8274H206.867V13.0007ZM208.819 11.6346C209.52 11.914 209.429 12.6902 208.697 12.6902C208.3 12.6902 208.087 12.4729 208.087 12.0693C208.087 11.3862 208.117 11.3552 208.819 11.6346Z" fill="#D9F4FD"/>
<path d="M4.44038 11.6656C2.39659 15.1119 0.993395 19.6139 0.962891 22.6876V23.8674H4.50138C7.97887 23.8674 8.03988 23.8674 8.9245 22.967L9.80912 22.0667V16.5712C9.80912 11.1999 9.80912 11.1068 9.04652 10.3616C8.49744 9.7717 7.97887 9.58541 7.00273 9.58541C5.69105 9.58541 5.66055 9.61646 4.44038 11.6656Z" fill="#D9F4FD"/>
<path d="M11.1818 10.3616C10.4192 11.1068 10.4192 11.1689 10.4192 16.6954V22.2529L11.3648 23.0602C12.0969 23.6811 12.6155 23.8674 13.8052 23.8674C15.2389 23.8674 15.2999 23.8364 15.1779 23.0912C15.0863 22.6566 15.1473 22.315 15.2999 22.315C15.4219 22.315 15.4829 22.0356 15.3914 21.6941C15.2999 21.3526 15.3914 21.0731 15.5744 21.0731C15.7574 21.0731 15.8795 20.98 15.8795 20.8247C15.7879 20.2348 15.9405 19.8002 16.215 19.9864C16.3675 20.0796 16.4285 19.9864 16.3675 19.7381C16.154 19.2413 17.3742 17.5958 17.7707 17.8131C17.9232 17.9373 17.9537 17.8131 17.8622 17.5647C17.7707 17.3163 17.8622 17.0059 18.0758 16.8506C18.3198 16.6954 18.3808 16.7575 18.2283 17.0679C18.1063 17.3163 18.2588 17.1921 18.5333 16.7885C18.8079 16.4159 19.2349 16.1055 19.4484 16.1055C19.6925 16.1055 19.8755 15.9502 19.8755 15.7329C19.8755 15.5466 19.967 15.4845 20.089 15.5777C20.1805 15.7018 20.5466 15.5466 20.8821 15.2672C21.3397 14.8636 21.4312 14.8325 21.2482 15.174C21.0042 15.5777 21.0347 15.5777 21.5227 15.174C22.1023 14.7083 23.9631 14.4289 23.6885 14.8636C23.597 15.0188 23.6275 15.2051 23.7801 15.2982C23.9021 15.3603 24.0851 14.9256 24.1156 14.3047C24.3291 12.0382 24.1766 11.0757 23.5055 10.3306C22.8344 9.58541 22.7124 9.58541 17.3742 9.58541C11.9749 9.58541 11.9139 9.58541 11.1818 10.3616Z" fill="#D9F4FD"/>
<path d="M25.6713 10.3616C25.1527 10.9205 24.9087 11.6035 24.8172 12.8765C24.6952 14.4599 24.7257 14.5841 25.2748 14.491C25.6103 14.4599 26.1289 14.6151 26.4339 14.8635C26.9525 15.2672 26.983 15.2672 26.739 14.8635C26.5254 14.491 26.5559 14.4599 26.9525 14.7704C27.1965 14.9877 27.5016 15.0809 27.5931 14.9567C27.7151 14.8635 27.8066 14.9567 27.8066 15.174C27.8066 15.3913 27.8981 15.4845 28.0201 15.3913C28.1116 15.2672 28.4777 15.4224 28.8132 15.7018C29.2708 16.1054 29.3623 16.1365 29.1793 15.795C29.0573 15.5466 29.3318 15.7639 29.8199 16.2917C30.308 16.7885 30.5825 17.0058 30.3995 16.7264C30.2469 16.447 30.3995 16.5401 30.735 16.9127C31.1011 17.3163 31.4976 17.5336 31.6501 17.4095C31.7722 17.2853 31.7722 17.3474 31.6806 17.5336C31.5891 17.7199 31.7722 18.0925 32.1077 18.403C32.4738 18.7135 32.6568 19.1481 32.5653 19.3965C32.4738 19.6449 32.5043 19.8001 32.6263 19.707C32.7483 19.6139 33.0533 19.8312 33.2669 20.2038C33.4804 20.5453 33.5109 20.7316 33.3279 20.6384C33.1143 20.5142 33.0838 20.6074 33.1754 20.8868C33.2669 21.1662 33.5109 21.2904 33.7244 21.1662C33.9075 21.0421 33.9075 21.1662 33.6634 21.4457C33.3889 21.8183 33.3584 22.0045 33.6024 22.1598C33.7854 22.284 33.877 22.5634 33.7854 22.8118C33.6939 23.0602 33.7549 23.2465 33.938 23.2465C34.121 23.2465 34.1515 23.3706 34.06 23.5569C33.7549 24.0537 36.5613 23.9295 37.5375 23.4017C38.0255 23.1533 38.4831 22.7186 38.6051 22.4703C38.6966 22.1908 38.7881 19.6449 38.7881 16.8506C38.7881 11.5414 38.5441 10.2063 37.4154 9.77168C37.1409 9.67854 34.548 9.58539 31.6501 9.58539C26.4339 9.58539 26.3729 9.58539 25.6713 10.3616Z" fill="#D9F4FD"/>
<path d="M40.6794 9.80275C39.6727 10.2064 39.3982 11.6656 39.3982 16.8817V22.0667L40.2828 22.967C41.1674 23.8674 41.2284 23.8674 44.7059 23.8674H48.2444L48.0614 22.0667C47.7259 19.1792 46.8107 15.9502 45.6516 13.5595C43.9128 10.0511 43.5163 9.58541 42.2046 9.61646C41.5945 9.61646 40.8929 9.70961 40.6794 9.80275Z" fill="#D9F4FD"/>
<path d="M99.4916 24.178V37.5286H100.864H102.237V24.178V10.8274H100.864H99.4916V24.178Z" fill="#D9F4FD"/>
<path d="M64.3203 11.4794C62.0325 12.0383 60.2022 13.4975 59.5311 15.3294C58.9515 16.8818 59.104 20.2349 59.8361 21.6631C60.7208 23.4639 62.246 24.3643 66.3641 25.4199C68.3163 25.9477 70.3601 26.5687 70.8787 26.8481C72.1294 27.5001 72.7394 29.1146 72.4954 31.0706C72.2209 32.9956 71.1837 34.2996 69.506 34.7653C68.2553 35.1068 63.3136 34.9827 60.6903 34.548L59.5311 34.3307V35.7278V37.125L63.3441 37.5286C67.8588 37.9943 69.75 37.8391 71.9463 36.7524C74.2036 35.6036 75.1493 33.9581 75.3323 30.6981C75.6068 26.0098 74.2342 24.5816 67.9198 22.9361C63.8627 21.8494 63.4662 21.6942 62.612 20.5764C62.1545 19.9865 61.9714 19.3035 61.9714 18.0926C61.9714 14.8326 64.1372 13.6838 69.567 14.0564C71.1837 14.1806 73.014 14.3358 73.6546 14.46L74.7832 14.6463V13.2492V11.852L71.7328 11.4794C68.2248 11.0758 65.9675 11.0758 64.3203 11.4794Z" fill="#D9F4FD"/>
<path d="M140.672 24.4885V37.5286H142.045H143.418V26.1961C143.418 18.8377 143.54 14.8636 143.723 14.8636C143.906 14.8636 144.028 14.8947 144.028 14.9568C144.028 15.0189 145.675 19.8623 147.688 25.7304C149.702 31.5984 151.349 36.4419 151.349 36.504C151.349 36.5661 152.05 36.5971 152.935 36.535L154.521 36.4419L158.212 25.6683C160.226 19.7381 161.964 14.8636 162.117 14.8636C162.239 14.8636 162.33 19.9555 162.33 26.1961V37.5286H163.703H165.076V24.4885V11.4173L162.727 11.5105L160.348 11.6036L156.687 22.3772C154.43 29.0525 152.935 32.9645 152.783 32.7161C152.661 32.4678 151.074 27.8416 149.244 22.4083C147.414 16.9749 145.828 12.2866 145.706 11.9762C145.523 11.5415 145.095 11.4484 143.082 11.4484H140.672V24.4885Z" fill="#D9F4FD"/>
<path d="M83.2024 19.055C80.1824 20.1416 78.9318 22.7497 78.9318 28.0588C78.9318 32.2813 79.5113 34.4547 80.9755 35.9139C83.5989 38.4909 89.9438 38.4909 92.3841 35.9139C93.6348 34.6099 94.2449 32.8092 94.4889 29.7975C94.977 24.0537 93.1467 19.8622 89.7913 18.8997C88.2051 18.465 84.6056 18.5271 83.2024 19.055ZM89.0592 21.5077C91.0114 22.5323 91.652 24.271 91.6215 28.5246C91.591 33.7716 90.5539 35.1688 86.8019 35.1998C82.7753 35.1998 82.0432 34.2374 81.8602 28.6487C81.7382 25.3577 81.8297 24.6746 82.3787 23.4327C82.8058 22.4081 83.2634 21.8493 83.9955 21.5388C85.3072 20.9799 87.9915 20.9489 89.0592 21.5077Z" fill="#D9F4FD"/>
<path d="M111.388 18.7447C111.144 18.8068 110.29 18.962 109.497 19.0552L108.033 19.2415V20.4834V21.7253L109.955 21.539C110.992 21.4459 112.547 21.2906 113.432 21.1975C114.286 21.1043 115.567 21.1975 116.269 21.3838C117.276 21.6632 117.611 21.9426 117.977 22.7809C118.343 23.6813 118.587 26.0409 118.343 26.0409C116.269 26.1341 110.29 27.0655 109.68 27.376C107.789 28.3695 107.27 29.301 107.179 31.8779C107.087 34.5481 107.575 35.9142 109.039 37.0319C110.26 37.9323 112.853 38.0254 116.025 37.2492C118.679 36.6283 118.679 36.6283 119.991 37.2182C121.577 37.9633 122.858 38.0254 123.102 37.3424C123.529 36.2246 123.254 35.5105 122.278 35.0448L121.302 34.5791L121.15 28.3695C121.028 22.8741 120.936 22.0358 120.387 21.1043C119.228 19.1173 118.435 18.7447 114.957 18.6826C113.249 18.6515 111.632 18.6826 111.388 18.7447ZM118.404 31.4433V34.3618L116.3 34.8585C111.663 35.9452 110.168 35.3863 109.924 32.4989C109.68 29.4872 111.053 28.68 116.513 28.5558L118.404 28.5248V31.4433Z" fill="#D9F4FD"/>
<path d="M133.87 19.3345C132.924 19.7381 131.796 20.297 131.369 20.5764C130.362 21.2595 130.301 21.2284 130.301 19.9865C130.301 18.8998 130.301 18.8998 128.928 18.8998H127.556V28.2142V37.5286H128.928H130.301V30.667V23.8365L132.223 22.9361C133.26 22.4704 134.694 21.9115 135.426 21.7252C136.676 21.3526 136.707 21.3526 136.707 19.9865C136.707 18.3099 136.463 18.2478 133.87 19.3345Z" fill="#D9F4FD"/>
<path d="M174.685 18.7447C174.532 18.8068 173.739 18.931 172.946 19.0552L171.482 19.2414V20.4834V21.7253L172.946 21.57C177.491 21.0733 178.772 21.0422 179.809 21.5079C181.121 22.0668 181.548 22.7809 181.548 24.6127C181.548 26.1962 181.609 26.1651 177.43 26.5066C172.763 26.8792 171.207 27.7796 170.505 30.4497C169.743 33.5545 171.116 36.7214 173.556 37.5597C174.837 37.9944 177.949 37.746 180.267 37.0629C181.823 36.5972 181.945 36.5972 183.195 37.1871C183.897 37.5597 184.934 37.8391 185.453 37.8391C186.398 37.8391 186.429 37.777 186.429 36.5972C186.429 35.6968 186.307 35.3553 185.971 35.3553C185.727 35.3553 185.239 35.0759 184.903 34.7343C184.324 34.1444 184.293 33.7097 184.293 28.2764C184.293 23.1845 184.202 22.3152 183.683 21.1354C182.829 19.2414 181.334 18.5894 177.735 18.6205C176.24 18.6205 174.868 18.6826 174.685 18.7447ZM181.548 31.4122V34.3307L180.419 34.7033C179.779 34.8896 178.254 35.169 177.033 35.2621C175.02 35.4174 174.746 35.3863 174.105 34.7654C172.702 33.4303 172.854 30.2324 174.319 29.3941C175.081 28.9594 177.277 28.6179 179.809 28.5558L181.548 28.5248V31.4122Z" fill="#D9F4FD"/>
<path d="M190.73 22.3772C191.95 24.3022 193.231 26.3824 193.628 27.0033L194.329 28.1521L192.926 30.4186C192.164 31.6916 190.852 33.8028 190.028 35.1068L188.564 37.5286H190.059H191.584L193.75 33.9581C194.97 32.002 196.007 30.3876 196.038 30.3876C196.099 30.3876 197.136 32.002 198.325 33.9581L200.522 37.5286H202.047H203.572L202.871 36.3487C202.474 35.7278 201.162 33.6165 199.973 31.6605L197.776 28.1211L199.119 26.0098C199.851 24.83 201.132 22.7498 201.986 21.3837L203.511 18.8998H202.016H200.491L198.295 22.4704C197.105 24.4574 196.038 26.0098 195.977 25.9167C195.885 25.8546 194.909 24.2711 193.78 22.4083L191.706 19.0551L190.15 18.9619L188.564 18.8688L190.73 22.3772Z" fill="#D9F4FD"/>
<path d="M0.962891 25.6372C0.962891 27.2827 1.87802 31.4431 2.64062 33.337C2.91516 34.0201 3.73878 35.5414 4.40987 36.6902L5.69105 38.8325L7.06374 38.6773C8.03988 38.5531 8.61946 38.3047 9.10753 37.6837C9.77862 36.9076 9.80912 36.6281 9.80912 31.5984C9.80912 28.4004 9.68711 26.0718 9.47358 25.6682C8.9245 24.6126 7.33828 24.1779 4.01332 24.1779H0.962891V25.6372Z" fill="#D9F4FD"/>
<path d="M41.0149 24.6437C40.4963 24.8611 39.9168 25.3268 39.7337 25.6994C39.5202 26.0719 39.3982 28.4005 39.3982 31.5985C39.3982 36.6282 39.4287 36.9077 40.0998 37.6839C40.5574 38.2427 41.1979 38.5532 42.0521 38.6774C43.3027 38.8326 43.3332 38.8326 44.2789 37.3423C46.3837 33.9581 47.6343 30.2945 48.0614 26.103L48.2749 24.178H45.133C43.1502 24.2091 41.625 24.3643 41.0149 24.6437Z" fill="#D9F4FD"/>
<path d="M11.0598 25.2957C10.4802 26.0719 10.4192 26.5376 10.4192 31.5364V36.9697L11.3038 37.8701L12.1884 38.7705H17.1301C22.6209 38.7705 23.536 38.5221 24.0851 36.9387C24.2681 36.4109 24.3291 35.6036 24.2681 35.1379C24.1766 34.6411 24.0851 34.0202 24.0546 33.7408C24.0241 33.4613 23.8716 33.3061 23.6885 33.4303C23.17 33.7718 22.5294 33.6787 21.4617 33.0887C20.7906 32.7472 20.5161 32.6851 20.6381 32.9335C20.7601 33.1508 20.6076 33.0577 20.3636 32.7472C20.089 32.4057 19.8755 32.2505 19.8755 32.3746C19.8755 32.4988 19.662 32.3746 19.3874 32.1263C19.1434 31.8468 18.7468 31.7226 18.5638 31.8468C18.3503 31.94 18.2893 31.94 18.4113 31.8158C18.6858 31.4743 17.4352 30.0771 16.8556 30.0461C16.52 30.0461 16.4895 29.984 16.7641 29.8598C17.0081 29.7666 16.9166 29.5182 16.459 29.0836C16.0625 28.742 15.9405 28.5868 16.154 28.68C16.4895 28.8662 16.52 28.7731 16.2455 28.2453C16.032 27.9038 15.7269 27.5933 15.5134 27.5933C15.2999 27.5933 15.3304 27.4691 15.6049 27.2828C15.9405 27.0655 15.9405 26.9723 15.6659 26.9723C15.4524 26.9723 15.3609 26.8171 15.4524 26.6618C15.5439 26.4756 15.4524 26.3514 15.2389 26.3514C14.9643 26.3514 14.9643 26.2582 15.2999 26.0409C15.6049 25.8546 15.6354 25.7304 15.3914 25.7304C14.9338 25.7304 14.9948 25.0784 15.4524 24.7369C15.6354 24.6127 14.8423 24.4885 13.7136 24.4885C11.8834 24.4885 11.6089 24.5816 11.0598 25.2957Z" fill="#D9F4FD"/>
<path d="M33.7245 25.0163C33.7245 25.3268 33.9075 25.6683 34.06 25.7925C34.243 25.9477 34.243 26.0409 34.0295 26.0409C33.816 26.0409 33.572 26.2582 33.4804 26.5376C33.3584 26.8481 33.4194 26.9413 33.694 26.786C33.9685 26.5997 33.9685 26.6308 33.694 27.0344C33.4804 27.2828 33.4194 27.6243 33.5415 27.7485C33.6635 27.9038 33.6025 27.9038 33.4194 27.8106C33.0534 27.5933 32.2908 29.0215 32.5348 29.4561C32.6263 29.6114 32.5348 29.8287 32.3518 29.9529C32.1078 30.0771 32.0772 30.0461 32.1993 29.8287C32.3213 29.6114 32.3518 29.4561 32.2298 29.4561C32.1383 29.4561 31.9247 29.7977 31.7722 30.2323C31.6197 30.667 31.2841 31.0085 31.0401 31.0085C30.7656 31.0085 30.43 31.288 30.247 31.6295C30.064 31.971 29.7894 32.1884 29.6064 32.0952C29.4539 31.971 29.3319 32.0331 29.3319 32.2194C29.3319 32.4057 28.9963 32.623 28.5693 32.7472C28.1117 32.8714 27.8982 33.0887 28.0202 33.3061C28.1422 33.4924 28.0202 33.4613 27.7456 33.244C27.4101 32.9646 27.1966 32.9335 27.044 33.1819C26.9525 33.3682 26.7085 33.4303 26.556 33.3371C26.4035 33.2129 26.2814 33.275 26.2814 33.4303C26.2814 33.5855 25.9764 33.7097 25.6103 33.6787C25.0003 33.6476 24.9087 33.8339 24.8172 34.9516C24.6952 36.5351 25.4273 38.0564 26.4645 38.46C26.8915 38.6463 29.4234 38.7705 32.1078 38.7705H37.0189L37.9036 37.8701L38.7882 36.9697V31.4743C38.7882 26.103 38.7882 26.0098 38.0256 25.2647C37.4155 24.6127 36.9884 24.4885 35.4937 24.4885C33.938 24.4885 33.6635 24.5816 33.7245 25.0163Z" fill="#D9F4FD"/>
<path d="M40.7404 39.4536C39.8558 39.8572 39.3372 40.9439 39.4592 41.9995C39.5507 42.8067 39.5812 42.8067 41.381 40.9439C43.1807 39.081 43.1807 39.081 42.2961 39.112C41.7775 39.112 41.0759 39.2673 40.7404 39.4536Z" fill="#D9F4FD"/>
<path d="M6.72816 39.9192C7.0027 40.447 8.16186 41.6268 9.29052 42.4651C9.74808 42.8377 9.80909 42.7756 9.80909 41.8131C9.80909 40.3849 8.86346 39.3914 7.49077 39.3914C6.57564 39.3914 6.48413 39.4535 6.72816 39.9192Z" fill="#D9F4FD"/>
<path d="M11.1818 40.1675C10.6327 40.7264 10.4192 41.2542 10.4192 42.1856C10.4192 43.3654 10.5107 43.4896 12.0359 44.4832C15.1168 46.5013 20.089 48.0847 23.231 48.0847H24.5122L24.3901 44.5453C24.2986 41.2852 24.2376 40.9127 23.5665 40.1986L22.8344 39.3913H17.3742C11.9749 39.3913 11.9139 39.3913 11.1818 40.1675Z" fill="#D9F4FD"/>
<path d="M26.0374 39.6088C25.1223 39.9813 24.7562 41.5337 24.7562 44.8559V48.178L26.983 47.9917C30.552 47.6812 34.4566 46.253 37.629 44.1107C38.6357 43.4277 38.7882 43.1793 38.7882 42.1236C38.7882 41.2543 38.5747 40.6954 38.0256 40.1676C37.2935 39.3914 37.2325 39.3914 31.8637 39.4225C28.8743 39.4225 26.2509 39.5156 26.0374 39.6088Z" fill="#D9F4FD"/>
</svg>
