<svg width="131" height="49" viewBox="0 0 131 49" fill="none" xmlns="http://www.w3.org/2000/svg">
<g clip-path="url(#clip0_64_2826)">
<path fill-rule="evenodd" clip-rule="evenodd" d="M24.5792 0.735787C24.7586 1.07675 24.8827 1.44885 24.9517 1.85207C24.3508 3.00999 23.9783 4.25032 23.8342 5.573C23.6454 7.19514 23.3971 8.80753 23.0892 10.4102C23.8342 10.4102 24.5792 10.4102 25.3242 10.4102C26.1933 9.79004 26.9383 9.04585 27.5591 8.17765C28.486 6.57545 29.4172 4.96306 30.3528 3.34044C31.0192 2.69709 31.8262 2.44903 32.774 2.59625C32.6256 4.97415 32.6256 7.33073 32.774 9.66602C34.3359 8.41582 35.95 7.23752 37.6164 6.13114C38.5435 5.78096 39.2885 5.96701 39.8514 6.68927C39.8514 7.06137 39.8514 7.43346 39.8514 7.80555C38.3372 8.07443 37.0954 8.81861 36.1264 10.0381C36.1264 10.1621 36.1264 10.2862 36.1264 10.4102C34.8425 11.116 33.6008 11.9221 32.4015 12.8288C32.9434 13.6576 33.6884 14.2157 34.6365 14.5032C35.5898 14.6155 36.4589 14.4914 37.2439 14.1311C39.572 12.9577 41.9932 12.4616 44.5075 12.6428C44.756 13.1389 44.756 13.635 44.5075 14.1311C43.1137 15.7116 41.5619 17.0759 39.8514 18.2242C39.6491 18.2465 39.5251 18.3705 39.4789 18.5963C39.7862 18.9258 40.1587 19.0498 40.5964 18.9683C42.587 18.9066 44.5735 18.9686 46.5562 19.1544C47.6737 19.7218 47.9222 20.528 47.3012 21.573C46.3227 21.3529 45.3293 21.2288 44.3213 21.2009C43.1572 20.8365 41.9157 20.7124 40.5964 20.8288C39.7273 20.8288 38.8579 20.8288 37.9889 20.8288C37.9238 21.6179 38.048 22.3621 38.3614 23.0614C38.9172 24.1118 39.7866 24.732 40.9688 24.9218C42.6816 25.6375 44.42 26.3197 46.1837 26.9683C47.6275 27.9131 47.6275 28.7813 46.1837 29.573C44.0728 29.697 41.9623 29.8211 39.8514 29.9451C41.2918 31.5085 42.8436 32.9348 44.5075 34.2242C45.1028 35.1151 45.1646 35.9834 44.6938 36.8288C43.4422 37.0928 42.7594 36.5967 42.6451 35.3404C41.9843 34.7953 41.3011 34.2992 40.5964 33.8521C40.4723 33.8521 40.3479 33.8521 40.2239 33.8521C39.4312 32.8733 38.5622 31.9431 37.6164 31.0614C37.0332 30.9499 36.5366 31.1359 36.1264 31.6195C35.7324 33.0598 35.9807 34.4241 36.8714 35.7125C41.2668 43.6031 40.025 44.7194 33.1465 39.0614C33.1241 38.8593 33 38.7354 32.774 38.6893C32.2943 39.3587 32.2943 39.9786 32.774 40.5497C33.2062 42.3931 33.3925 44.2536 33.3327 46.1311C32.8239 47.1064 32.141 47.3546 31.284 46.8753C31.2957 45.5309 31.1715 44.1665 30.9115 42.7823C30.9755 42.4132 30.8513 42.1654 30.539 42.0381C30.539 40.5497 30.539 39.0614 30.539 37.573C29.5378 37.4487 28.6686 37.6965 27.9316 38.3172C27.2458 39.1912 26.7492 40.1832 26.4416 41.2939C26.2631 43.608 25.7664 45.8405 24.9517 47.9916C24.455 47.9916 23.9583 47.9916 23.4617 47.9916C22.6627 45.6805 21.9798 43.3237 21.413 40.9218C20.2145 43.1309 18.7866 45.1775 17.1293 47.0614C16.3714 47.2843 15.7505 47.0982 15.2668 46.5032C15.2112 46.1118 15.2733 45.7397 15.4531 45.3869C16.7014 44.754 17.5085 43.7616 17.8743 42.4102C18.5146 40.9628 19.3838 39.6604 20.4817 38.5032C19.7587 37.7951 18.8896 37.4852 17.8743 37.573C16.8197 37.7884 15.9506 38.2844 15.2668 39.0614C8.16184 44.6882 6.92021 43.5719 11.5419 35.7125C11.4178 35.5885 11.2936 35.4645 11.1694 35.3404C8.71887 36.5974 6.17347 37.0936 3.53332 36.8288C3.3508 36.3476 3.28871 35.8515 3.34707 35.3404C4.79074 35.1382 6.15653 34.7661 7.44449 34.2242C9.00483 33.622 10.619 33.2499 12.2869 33.1079C12.4176 31.8757 11.921 31.0074 10.7969 30.5032C10.1255 30.1467 9.38056 29.8986 8.56197 29.759C6.18051 29.868 3.82139 29.744 1.48461 29.3869C1.01541 28.6975 1.01541 28.0153 1.48461 27.3404C3.51484 26.5416 5.50146 25.6733 7.44449 24.7358C5.17285 23.8364 2.93787 22.9061 0.739624 21.9451C0.739624 21.2009 0.739624 20.4567 0.739624 19.7125C0.863788 19.7125 0.987953 19.7125 1.11212 19.7125C2.10543 20.0846 3.09874 20.4567 4.09206 20.8288C4.46965 21.2655 4.9663 21.5136 5.58203 21.573C6.93954 21.9092 8.24327 22.4053 9.49321 23.0614C9.78077 23.0075 10.0291 22.8835 10.2382 22.6893C10.422 22.0812 10.4841 21.4611 10.4244 20.8288C10.0731 19.8579 9.45234 19.1138 8.56197 18.5963C6.69213 17.1004 5.07797 15.364 3.71957 13.3869C3.74724 12.5537 4.18182 12.1816 5.02329 12.2707C6.99724 12.729 8.9218 13.3491 10.7969 14.1311C10.9211 14.0071 11.0453 13.8831 11.1694 13.759C10.3131 11.9758 9.3819 10.2394 8.37573 8.54974C8.02517 7.62345 8.21142 6.87927 8.93447 6.31718C9.43111 6.31718 9.92779 6.31718 10.4244 6.31718C10.4085 7.89225 10.9051 9.25657 11.9144 10.4102C12.0386 10.4102 12.1627 10.4102 12.2869 10.4102C12.8409 11.7666 13.3996 13.1309 13.9631 14.5032C14.5646 14.1735 15.1233 13.8014 15.6393 13.3869C16.3945 11.8105 16.5187 10.198 16.0118 8.54974C15.7643 7.06624 15.516 5.57787 15.2668 4.08462C15.378 2.6982 16.1229 2.26409 17.5018 2.7823C18.7277 4.54892 19.9072 6.3474 21.0405 8.17765C21.5371 5.69151 22.22 3.27291 23.0892 0.921833C23.5709 0.739504 24.0676 0.677487 24.5792 0.735787ZM17.1293 4.45672C18.0055 6.39019 19.123 8.18866 20.4817 9.85207C20.0329 10.3639 19.5362 10.798 18.9918 11.1544C18.6193 11.1544 18.2468 11.1544 17.8743 11.1544C17.6637 10.242 17.4153 9.37378 17.1293 8.54974C17.1444 7.29184 17.0202 6.05154 16.7568 4.82881C16.7568 4.58074 16.881 4.45672 17.1293 4.45672ZM29.0491 11.1544C28.6766 10.6583 28.3041 10.1621 27.9316 9.66602C29.1948 8.0185 30.3743 6.28206 31.4703 4.45672C31.2675 6.5471 31.0192 8.6556 30.7253 10.7823C30.2202 11.1098 29.6614 11.2338 29.0491 11.1544ZM23.8342 5.573C24.0642 5.61419 24.2504 5.73821 24.3929 5.94509C24.7048 7.43867 25.0153 8.92704 25.3242 10.4102C24.5792 10.4102 23.8342 10.4102 23.0892 10.4102C23.3971 8.80753 23.6454 7.19514 23.8342 5.573ZM12.2869 10.4102C13.2737 11.0204 14.267 11.6406 15.2668 12.2707C15.5968 12.5776 15.7209 12.9497 15.6393 13.3869C15.1233 13.8014 14.5646 14.1735 13.9631 14.5032C13.3996 13.1309 12.8409 11.7666 12.2869 10.4102ZM25.6966 11.5265C26.5658 12.0226 27.435 12.5187 28.3041 13.0149C29.2362 13.4906 30.1674 13.4906 31.0978 13.0149C31.5468 14.6435 32.6022 15.5117 34.264 15.6195C34.1542 16.4513 34.2784 17.1955 34.6365 17.8521C34.8389 19.1715 35.5839 20.0397 36.8714 20.4567C36.3639 21.6428 36.4881 22.759 37.2439 23.8056C36.9956 24.5497 36.7473 25.2939 36.4989 26.0381C36.04 27.0367 36.04 28.0909 36.4989 29.2009C35.2034 30.1625 34.5826 31.4649 34.6365 33.1079C33.9233 33.002 33.3025 33.1261 32.774 33.48C32.2088 33.4839 31.7742 33.732 31.4703 34.2242C31.0978 34.9683 30.7253 35.7125 30.3528 36.4567C28.9817 36.1065 27.8021 36.4786 26.8141 37.573C26.1447 37.1154 25.3997 36.8674 24.5792 36.8288C23.5025 36.7462 22.5092 36.9943 21.5992 37.573C21.014 36.8604 20.269 36.4883 19.3643 36.4567C18.8358 36.1028 18.215 35.9788 17.5018 36.0846C17.4446 35.1656 17.0721 34.4214 16.3843 33.8521C15.6473 33.2316 14.7781 32.9835 13.7769 33.1079C13.6556 32.0618 13.3451 31.0696 12.8456 30.1311C12.5958 29.8512 12.2854 29.7271 11.9144 29.759C12.2378 28.5785 12.2378 27.4622 11.9144 26.4102C11.9543 25.516 11.5818 24.8338 10.7969 24.3637C11.8075 23.0422 12.0559 21.6158 11.5419 20.0846C12.2513 19.9962 12.7479 19.6241 13.0319 18.9683C13.9911 18.0957 14.3635 16.9794 14.1494 15.6195C15.8406 15.5423 16.8339 14.6741 17.1293 13.0149C18.0386 13.4823 18.9077 13.4823 19.7368 13.0149C20.7891 12.7755 21.7203 12.2793 22.5305 11.5265C23.6029 12.0074 24.6583 12.0074 25.6966 11.5265ZM11.9144 17.1079C11.3847 17.6381 10.7639 18.0102 10.0519 18.2242C8.74893 16.6127 7.25896 15.1863 5.58203 13.9451C7.67373 14.4534 9.78453 15.0116 11.9144 15.6195C11.9144 16.1156 11.9144 16.6118 11.9144 17.1079ZM36.4989 17.1079C36.4989 16.6118 36.4989 16.1156 36.4989 15.6195C38.6292 15.0115 40.7398 14.4534 42.8313 13.9451C41.2296 15.1723 39.7396 16.5366 38.3614 18.0381C37.5538 18.1309 36.933 17.8208 36.4989 17.1079ZM7.81699 20.8288C8.68613 20.8288 9.5553 20.8288 10.4244 20.8288C10.4841 21.4611 10.422 22.0812 10.2382 22.6893C10.0291 22.8835 9.78077 23.0075 9.49321 23.0614C8.24327 22.4053 6.93954 21.9092 5.58203 21.573C6.32702 21.3249 7.072 21.0769 7.81699 20.8288ZM10.0519 27.5265C9.8248 27.858 9.70065 28.2301 9.67945 28.6428C7.81699 28.6428 5.95452 28.6428 4.09206 28.6428C3.84373 28.3947 3.5954 28.1467 3.34707 27.8986C5.28035 27.4821 7.08072 26.7379 8.74822 25.666C9.41953 26.1458 9.85408 26.7659 10.0519 27.5265ZM39.4789 25.666C41.2207 26.701 43.0831 27.4452 45.0663 27.8986C44.8178 28.1467 44.5697 28.3947 44.3213 28.6428C42.4424 28.7646 40.58 28.6406 38.7339 28.2707C38.456 27.8107 38.332 27.3146 38.3614 26.7823C38.649 26.3382 39.0215 25.9661 39.4789 25.666ZM40.2239 33.8521C38.8885 33.4492 37.5228 33.2011 36.1264 33.1079C36.1264 32.6118 36.1264 32.1156 36.1264 31.6195C36.5366 31.1359 37.0332 30.9499 37.6164 31.0614C38.5622 31.9431 39.4312 32.8733 40.2239 33.8521ZM15.2668 35.7125C15.391 36.2086 15.5152 36.7048 15.6393 37.2009C13.7973 38.2967 12.059 39.5373 10.4244 40.9218C11.3756 38.8984 12.4309 36.9139 13.5906 34.9683C14.0859 35.371 14.6447 35.6191 15.2668 35.7125ZM35.009 34.9683C35.7815 36.8834 36.6507 38.744 37.6164 40.5497C36.1082 39.3914 34.5561 38.2751 32.9603 37.2009C32.9149 36.538 33.1011 35.9179 33.519 35.3404C34.0623 35.3655 34.559 35.2415 35.009 34.9683ZM17.8743 37.573C18.8896 37.4852 19.7587 37.7951 20.4817 38.5032C19.3838 39.6604 18.5146 40.9628 17.8743 42.4102C17.7831 40.8809 17.7831 39.2682 17.8743 37.573ZM30.539 42.0381C29.6746 40.8117 28.8054 39.5715 27.9316 38.3172C28.6686 37.6965 29.5378 37.4487 30.539 37.573C30.539 39.0614 30.539 40.5497 30.539 42.0381ZM23.4617 39.0614C24.2308 39.0677 24.9758 39.1916 25.6966 39.4335C25.1333 41.3791 24.7608 43.3635 24.5792 45.3869C24.3308 45.5109 24.0825 45.6351 23.8342 45.759C23.6775 43.7981 23.305 41.8755 22.7167 39.9916C22.9237 39.6154 23.172 39.3055 23.4617 39.0614Z" fill="#D9F4FD"/>
<path fill-rule="evenodd" clip-rule="evenodd" d="M24.5792 0.73584C25.2627 0.967375 25.6973 1.4635 25.8829 2.22421C26.2363 4.31902 26.795 6.3035 27.5592 8.1777C26.9383 9.04591 26.1933 9.79009 25.3242 10.4103C25.0153 8.9271 24.7049 7.43872 24.393 5.94514C24.2505 5.73826 24.0642 5.61424 23.8342 5.57305C23.9784 4.25037 24.3509 3.01004 24.9517 1.85212C24.8828 1.4489 24.7586 1.07681 24.5792 0.73584Z" fill="#797776"/>
<path fill-rule="evenodd" clip-rule="evenodd" d="M17.1294 4.45683C16.881 4.45683 16.7569 4.58085 16.7569 4.82893C16.357 4.54963 16.2949 4.17754 16.5706 3.71265C16.8378 3.91514 17.024 4.16321 17.1294 4.45683Z" fill="#FAC8A1"/>
<path fill-rule="evenodd" clip-rule="evenodd" d="M104.293 34.2242C104.293 34.9684 104.293 35.7126 104.293 36.4568C103.299 36.4568 102.306 36.4568 101.313 36.4568C98.3142 36.0647 96.762 34.3283 96.6566 31.2475C96.4704 22.4421 96.4081 13.6359 96.4704 4.82886C97.4638 4.82886 98.4569 4.82886 99.4503 4.82886C99.3881 13.884 99.4503 22.9382 99.6365 31.9916C100.641 33.7582 102.193 34.5024 104.293 34.2242Z" fill="#D9F4FD"/>
<path fill-rule="evenodd" clip-rule="evenodd" d="M107.645 4.45683C110.436 4.20708 111.305 5.38535 110.253 7.99172C108.324 9.01311 107.207 8.45497 106.9 6.3173C106.877 5.56794 107.125 4.94777 107.645 4.45683Z" fill="#D9F4FD"/>
<path fill-rule="evenodd" clip-rule="evenodd" d="M8.93445 6.31716C9.78079 5.84664 10.65 5.90867 11.5419 6.5032C12.9698 7.68151 14.3977 8.85978 15.8256 10.0381C16.0081 9.5569 16.0702 9.06075 16.0118 8.54971C16.5187 10.198 16.3945 11.8104 15.6393 13.3869C15.7209 12.9497 15.5967 12.5776 15.2668 12.2706C14.267 11.6406 13.2737 11.0204 12.2869 10.4102C12.1627 9.91407 12.0385 9.91407 11.9144 10.4102C10.9051 9.25654 10.4084 7.89223 10.4244 6.31716C9.92777 6.31716 9.43109 6.31716 8.93445 6.31716Z" fill="#807C7B"/>
<path fill-rule="evenodd" clip-rule="evenodd" d="M39.8514 6.68945C40.2604 7.09909 40.3226 7.59524 40.0376 8.17783C38.992 10.1411 38.0608 12.1255 37.2439 14.1313C36.4589 14.4916 35.5898 14.6156 34.6365 14.5034C35.0269 13.1027 35.5236 11.7384 36.1264 10.4104C36.6231 10.2864 36.6231 10.1623 36.1264 10.0383C37.0954 8.81879 38.3372 8.07461 39.8514 7.80573C39.8514 7.43364 39.8514 7.06155 39.8514 6.68945Z" fill="#797776"/>
<path fill-rule="evenodd" clip-rule="evenodd" d="M17.1294 8.5498C17.4154 9.37384 17.6638 10.242 17.8744 11.1545C17.626 11.1545 17.3777 11.1545 17.1294 11.1545C17.1294 10.2863 17.1294 9.41801 17.1294 8.5498Z" fill="#F3C5A2"/>
<path fill-rule="evenodd" clip-rule="evenodd" d="M27.9316 9.66602C28.3041 10.1621 28.6766 10.6583 29.0491 11.1544C28.6766 11.1544 28.3041 11.1544 27.9316 11.1544C27.8817 11.821 28.0059 12.4412 28.3041 13.0149C27.435 12.5187 26.5658 12.0226 25.6967 11.5265C26.4324 10.9174 27.1774 10.2972 27.9316 9.66602Z" fill="#8C827C"/>
<path fill-rule="evenodd" clip-rule="evenodd" d="M17.1294 11.1545C17.3777 11.1545 17.626 11.1545 17.8744 11.1545C18.2469 11.1545 18.6194 11.1545 18.9919 11.1545C18.3699 12.1455 18.6182 12.7657 19.7368 13.015C18.9078 13.4825 18.0386 13.4825 17.1294 13.015C17.1294 12.3948 17.1294 11.7747 17.1294 11.1545Z" fill="#7A7472"/>
<path fill-rule="evenodd" clip-rule="evenodd" d="M81.1981 12.2707C90.0352 11.5473 94.257 15.6404 93.8629 24.5498C94.2644 33.5144 90.043 37.5455 81.1981 36.6428C77.7012 35.4314 75.5281 33.0128 74.6795 29.387C73.6596 24.7387 74.1565 20.2736 76.1695 15.9916C77.5026 14.217 79.1789 12.9767 81.1981 12.2707ZM82.3156 14.8753C86.9271 14.3535 89.7208 16.338 90.6967 20.8288C91.0182 23.8295 90.8941 26.8062 90.3242 29.7591C88.6964 33.394 85.9027 34.8203 81.9431 34.0381C79.1111 32.8159 77.5589 30.6453 77.287 27.5265C76.9178 24.4936 77.1663 21.5168 78.032 18.5963C79.072 16.873 80.4997 15.6327 82.3156 14.8753Z" fill="#D9F4FD"/>
<path fill-rule="evenodd" clip-rule="evenodd" d="M70.7683 14.5033C70.7683 14.8754 70.7683 15.2475 70.7683 15.6196C70.528 16.1077 70.1555 16.4798 69.6508 16.7359C66.9007 15.006 63.9207 14.4478 60.7109 15.0615C57.7884 16.2612 56.9812 18.3077 58.2897 21.201C58.742 21.7773 59.3007 22.2114 59.966 22.5033C62.6811 22.9731 65.4126 23.3452 68.1608 23.6196C71.0517 24.5265 72.5417 26.511 72.6307 29.5731C72.5637 32.9344 70.9497 35.167 67.7883 36.2708C63.1519 37.4916 58.8064 36.8714 54.7511 34.4103C53.6947 33.1097 54.005 32.1795 55.6823 31.6196C58.685 34.0559 62.0992 34.8621 65.9258 34.0382C68.9538 33.2615 70.1335 31.3391 69.4645 28.2708C69.1721 27.6062 68.7378 27.0481 68.1608 26.5964C65.2144 25.9226 62.2344 25.4265 59.221 25.108C56.3241 24.1962 54.8341 22.2118 54.7511 19.1545C55.5288 14.3513 58.3847 12.0567 63.3184 12.2708C64.8341 12.2722 66.324 12.4583 67.7883 12.8289C68.9743 13.1095 69.9678 13.6677 70.7683 14.5033Z" fill="#D9F4FD"/>
<path fill-rule="evenodd" clip-rule="evenodd" d="M107.645 12.6428C107.645 20.5808 107.645 28.5188 107.645 36.4568C108.39 36.4568 109.135 36.4568 109.88 36.4568C109.88 28.5188 109.88 20.5808 109.88 12.6428C110.251 20.6404 110.376 28.7024 110.253 36.8289C109.259 36.8289 108.266 36.8289 107.273 36.8289C107.149 28.7024 107.274 20.6404 107.645 12.6428Z" fill="#FBD5B6"/>
<path fill-rule="evenodd" clip-rule="evenodd" d="M107.645 12.6428C108.39 12.6428 109.135 12.6428 109.88 12.6428C109.88 20.5808 109.88 28.5188 109.88 36.4568C109.135 36.4568 108.39 36.4568 107.645 36.4568C107.645 28.5188 107.645 20.5808 107.645 12.6428Z" fill="#D9F4FD"/>
<path fill-rule="evenodd" clip-rule="evenodd" d="M130.74 27.1544C130.74 28.8908 130.74 30.6272 130.74 32.3637C128.609 35.7217 125.505 37.2101 121.427 36.8288C117.759 37.1039 114.655 35.9257 112.115 33.2939C112.694 32.5899 113.377 32.0318 114.164 31.6195C117.839 34.3271 121.874 34.9473 126.27 33.48C127.139 33.3559 127.636 32.8598 127.76 31.9916C128.52 29.9339 128.148 28.1355 126.642 26.5962C123.69 25.9538 120.71 25.4577 117.702 25.1079C114.795 24.1881 113.305 22.2036 113.232 19.1544C113.205 17.811 113.578 16.6327 114.35 15.6195C114.874 15.4435 115.122 15.0714 115.095 14.5032C116.959 12.8077 119.193 12.0635 121.8 12.2707C124.52 12.1434 127.003 12.8256 129.25 14.3172C129.604 14.5841 129.666 14.8942 129.436 15.2474C129.101 15.9271 128.604 16.4232 127.946 16.7358C125.28 14.9969 122.362 14.4387 119.192 15.0614C116.084 16.5794 115.339 18.8119 116.957 21.759C117.873 22.3403 118.866 22.7124 119.937 22.8753C122.576 23.0393 125.184 23.4113 127.76 23.9916C129.102 24.7723 130.095 25.8266 130.74 27.1544Z" fill="#D9F4FD"/>
<path fill-rule="evenodd" clip-rule="evenodd" d="M70.7683 14.5034C71.694 14.7862 71.694 15.1583 70.7683 15.6197C70.7683 15.2476 70.7683 14.8755 70.7683 14.5034Z" fill="#FFC89F"/>
<path fill-rule="evenodd" clip-rule="evenodd" d="M115.095 14.5034C115.122 15.0716 114.874 15.4437 114.35 15.6197C114.323 15.0515 114.571 14.6795 115.095 14.5034Z" fill="#FDC49A"/>
<path fill-rule="evenodd" clip-rule="evenodd" d="M34.264 15.6196C35.009 15.6196 35.7539 15.6196 36.4989 15.6196C36.4989 16.1157 36.4989 16.6119 36.4989 17.108C35.6802 16.9666 35.0594 17.2147 34.6365 17.8522C34.2784 17.1956 34.1542 16.4514 34.264 15.6196Z" fill="#787371"/>
<path fill-rule="evenodd" clip-rule="evenodd" d="M11.9145 17.1079C11.4401 18.1391 11.8126 18.7593 13.0319 18.9684C12.748 19.6242 12.2513 19.9962 11.542 20.0847C10.9599 19.5471 10.4632 18.9269 10.052 18.2242C10.7639 18.0102 11.3848 17.6381 11.9145 17.1079Z" fill="#807A77"/>
<path fill-rule="evenodd" clip-rule="evenodd" d="M39.8514 18.2244C40.0998 18.4724 40.3479 18.7205 40.5964 18.9686C40.1587 19.05 39.7862 18.926 39.4789 18.5965C39.5251 18.3707 39.6491 18.2467 39.8514 18.2244Z" fill="#FCDDC5"/>
<path fill-rule="evenodd" clip-rule="evenodd" d="M8.56204 18.5964C9.45241 19.1139 10.0732 19.8581 10.4245 20.829C9.55537 20.829 8.68619 20.829 7.81705 20.829C6.57542 20.829 5.33376 20.829 4.09213 20.829C3.09881 20.4569 2.1055 20.0848 1.11218 19.7127C1.15342 19.483 1.27759 19.2969 1.48468 19.1546C3.86175 19.0625 6.22088 18.8765 8.56204 18.5964Z" fill="#6C6B6B"/>
<path fill-rule="evenodd" clip-rule="evenodd" d="M4.09204 20.8289C5.33367 20.8289 6.57534 20.8289 7.81697 20.8289C7.07198 21.0769 6.327 21.325 5.58201 21.573C4.96628 21.5137 4.46963 21.2656 4.09204 20.8289Z" fill="#DDD7D2"/>
<path fill-rule="evenodd" clip-rule="evenodd" d="M40.5964 20.8289C41.9158 20.7125 43.1573 20.8365 44.3214 21.201C43.7779 21.1759 43.2814 21.2999 42.8314 21.5731C42.0864 21.325 41.3414 21.077 40.5964 20.8289Z" fill="#F6DBC6"/>
<path fill-rule="evenodd" clip-rule="evenodd" d="M44.3213 21.2009C45.3293 21.2289 46.3227 21.3529 47.3013 21.573C45.2496 22.7841 43.1387 23.9003 40.9689 24.9218C39.7866 24.732 38.9172 24.1118 38.3615 23.0614C39.8514 22.5653 41.3414 22.0691 42.8314 21.573C43.2813 21.2999 43.7779 21.1758 44.3213 21.2009Z" fill="#757475"/>
<path fill-rule="evenodd" clip-rule="evenodd" d="M37.244 23.8057C37.9982 24.4369 38.7433 25.057 39.479 25.6661C39.0215 25.9662 38.6491 26.3383 38.3615 26.7824C37.9386 26.1449 37.3178 25.8969 36.499 26.0382C36.7474 25.294 36.9957 24.5499 37.244 23.8057Z" fill="#837D79"/>
<path fill-rule="evenodd" clip-rule="evenodd" d="M11.9144 26.4104C12.2378 27.4624 12.2378 28.5787 11.9144 29.7592C11.0764 29.5247 10.3315 29.1527 9.67944 28.643C9.70064 28.2303 9.82479 27.8582 10.0519 27.5267C11.2842 28.1904 11.905 27.8183 11.9144 26.4104Z" fill="#86807D"/>
<path fill-rule="evenodd" clip-rule="evenodd" d="M3.34709 27.8987C3.59542 28.1468 3.84375 28.3948 4.09208 28.6429C3.45914 28.7025 2.83832 28.6405 2.22961 28.4569C2.50668 28.0704 2.87917 27.8844 3.34709 27.8987Z" fill="#FCD8BB"/>
<path fill-rule="evenodd" clip-rule="evenodd" d="M45.0663 27.8987C45.3926 27.85 45.641 27.9741 45.8113 28.2708C45.3684 28.6164 44.8718 28.7404 44.3213 28.6429C44.5697 28.3948 44.8178 28.1468 45.0663 27.8987Z" fill="#FCDAC0"/>
<path fill-rule="evenodd" clip-rule="evenodd" d="M8.56195 29.759C9.38054 29.8986 10.1255 30.1467 10.7969 30.5032C9.94218 31.9773 8.8247 33.2176 7.44447 34.2241C6.1565 34.7661 4.79072 35.1382 3.34705 35.3404C4.82476 33.2439 6.56307 31.3834 8.56195 29.759Z" fill="#777777"/>
<path fill-rule="evenodd" clip-rule="evenodd" d="M127.76 31.9917C127.636 32.8599 127.139 33.3561 126.27 33.4801C126.642 32.8599 127.139 32.3638 127.76 31.9917Z" fill="#FEB57F"/>
<path fill-rule="evenodd" clip-rule="evenodd" d="M34.6365 33.1078C34.9908 33.6357 35.115 34.2559 35.009 34.9683C34.5591 35.2415 34.0624 35.3655 33.519 35.3404C33.5692 34.5761 33.3209 33.9559 32.774 33.4799C33.3025 33.126 33.9233 33.002 34.6365 33.1078Z" fill="#78706B"/>
<path fill-rule="evenodd" clip-rule="evenodd" d="M36.1265 31.6196C36.1265 32.1157 36.1265 32.6119 36.1265 33.108C37.5229 33.2012 38.8885 33.4493 40.2239 33.8522C40.3479 34.3483 40.4724 34.3483 40.5964 33.8522C41.3012 34.2993 41.9843 34.7954 42.6451 35.3406C42.7595 36.5968 43.4422 37.093 44.6938 36.8289C43.7753 37.2509 42.7818 37.3129 41.7139 37.015C40.18 36.3804 38.6278 35.8222 37.0577 35.3406C36.9092 35.4255 36.8471 35.5496 36.8715 35.7127C35.9808 34.4242 35.7324 33.0599 36.1265 31.6196Z" fill="#7B7978"/>
<path fill-rule="evenodd" clip-rule="evenodd" d="M16.3843 33.8521C17.0721 34.4214 17.4446 35.1656 17.5018 36.0846C18.215 35.9787 18.8358 36.1028 19.3643 36.4567C18.0468 36.3863 16.8051 36.6343 15.6393 37.2009C15.5152 36.7048 15.391 36.2086 15.2668 35.7125C16.2293 35.5085 16.6018 34.8883 16.3843 33.8521Z" fill="#8B827C"/>
<path fill-rule="evenodd" clip-rule="evenodd" d="M104.293 34.2241C104.653 35.0083 104.778 35.8765 104.665 36.8288C103.468 36.9441 102.351 36.8201 101.313 36.4567C102.306 36.4567 103.299 36.4567 104.293 36.4567C104.293 35.7125 104.293 34.9683 104.293 34.2241Z" fill="#FCE2CD"/>
<path fill-rule="evenodd" clip-rule="evenodd" d="M24.5791 36.8289C25.3997 36.8674 26.1447 37.1154 26.8141 37.573C26.5868 38.2927 26.2143 38.913 25.6966 39.4335C24.9758 39.1916 24.2308 39.0677 23.4617 39.0614C23.8593 38.7139 24.356 38.5896 24.9516 38.6893C25.0016 38.0225 24.8774 37.4026 24.5791 36.8289Z" fill="#887E78"/>
<path fill-rule="evenodd" clip-rule="evenodd" d="M17.8743 37.573C17.7832 39.2683 17.7832 40.8809 17.8743 42.4102C17.5085 43.7616 16.7014 44.754 15.4531 45.387C15.2733 45.7397 15.2112 46.1118 15.2669 46.5032C15.1054 44.0106 15.1054 41.5298 15.2669 39.0614C15.9506 38.2844 16.8198 37.7884 17.8743 37.573Z" fill="#767576"/>
<path fill-rule="evenodd" clip-rule="evenodd" d="M33.1465 39.0615C32.7984 39.4589 32.6742 39.9549 32.774 40.5499C32.2943 39.9788 32.2943 39.3588 32.774 38.6895C33 38.7356 33.1241 38.8595 33.1465 39.0615Z" fill="#FCD6B9"/>
<path fill-rule="evenodd" clip-rule="evenodd" d="M27.9316 38.3174C28.8054 39.5717 29.6746 40.8119 30.5391 42.0383C30.4752 42.4074 30.5993 42.6552 30.9116 42.7825C31.1715 44.1667 31.2957 45.5312 31.2841 46.8755C30.9131 46.9075 30.6027 46.7832 30.3528 46.5034C29.2661 44.9533 28.2728 43.341 27.3729 41.6662C27.123 41.3864 26.8126 41.2621 26.4417 41.2941C26.7492 40.1834 27.2459 39.1914 27.9316 38.3174Z" fill="#777676"/>
<path fill-rule="evenodd" clip-rule="evenodd" d="M24.5792 45.387C24.381 46.4884 24.1327 46.6123 23.8342 45.7591C24.0826 45.6351 24.3309 45.5109 24.5792 45.387Z" fill="#FCDBC2"/>
</g>
<defs>
<clipPath id="clip0_64_2826">
<rect width="130" height="48" fill="white" transform="translate(0.925903 0.177734)"/>
</clipPath>
</defs>
</svg>
