<svg width="104" height="32" viewBox="0 0 104 32" fill="none" xmlns="http://www.w3.org/2000/svg">
<path d="M41.58 22.6262C40.704 22.6262 39.912 22.4762 39.204 22.1762C38.508 21.8762 37.956 21.4442 37.548 20.8802C37.14 20.3162 36.93 19.6502 36.918 18.8822H39.618C39.654 19.3982 39.834 19.8062 40.158 20.1062C40.494 20.4062 40.95 20.5562 41.526 20.5562C42.114 20.5562 42.576 20.4182 42.912 20.1422C43.248 19.8542 43.416 19.4822 43.416 19.0262C43.416 18.6542 43.302 18.3482 43.074 18.1082C42.846 17.8682 42.558 17.6822 42.21 17.5502C41.874 17.4062 41.406 17.2502 40.806 17.0822C39.99 16.8422 39.324 16.6082 38.808 16.3802C38.304 16.1402 37.866 15.7862 37.494 15.3182C37.134 14.8382 36.954 14.2022 36.954 13.4102C36.954 12.6662 37.14 12.0182 37.512 11.4662C37.884 10.9142 38.406 10.4942 39.078 10.2062C39.75 9.90618 40.518 9.75618 41.382 9.75618C42.678 9.75618 43.728 10.0742 44.532 10.7102C45.348 11.3342 45.798 12.2102 45.882 13.3382H43.11C43.086 12.9062 42.9 12.5522 42.552 12.2762C42.216 11.9882 41.766 11.8442 41.202 11.8442C40.71 11.8442 40.314 11.9702 40.014 12.2222C39.726 12.4742 39.582 12.8402 39.582 13.3202C39.582 13.6562 39.69 13.9382 39.906 14.1662C40.134 14.3822 40.41 14.5622 40.734 14.7062C41.07 14.8382 41.538 14.9942 42.138 15.1742C42.954 15.4142 43.62 15.6542 44.136 15.8942C44.652 16.1342 45.096 16.4942 45.468 16.9742C45.84 17.4542 46.026 18.0842 46.026 18.8642C46.026 19.5362 45.852 20.1602 45.504 20.7362C45.156 21.3122 44.646 21.7742 43.974 22.1222C43.302 22.4582 42.504 22.6262 41.58 22.6262Z" fill="#9FE221"/>
<path d="M50.7847 20.3762H56.4367V22.5002H47.8687V20.5562L53.4847 12.0602H47.8687V9.93618H56.4367V11.8802L50.7847 20.3762Z" fill="#9FE221"/>
<path d="M62.9198 22.6262C62.0438 22.6262 61.2518 22.4762 60.5438 22.1762C59.8478 21.8762 59.2958 21.4442 58.8878 20.8802C58.4798 20.3162 58.2698 19.6502 58.2578 18.8822H60.9578C60.9938 19.3982 61.1738 19.8062 61.4978 20.1062C61.8338 20.4062 62.2898 20.5562 62.8658 20.5562C63.4538 20.5562 63.9158 20.4182 64.2518 20.1422C64.5878 19.8542 64.7558 19.4822 64.7558 19.0262C64.7558 18.6542 64.6418 18.3482 64.4138 18.1082C64.1858 17.8682 63.8978 17.6822 63.5498 17.5502C63.2138 17.4062 62.7458 17.2502 62.1458 17.0822C61.3298 16.8422 60.6638 16.6082 60.1478 16.3802C59.6438 16.1402 59.2058 15.7862 58.8338 15.3182C58.4738 14.8382 58.2938 14.2022 58.2938 13.4102C58.2938 12.6662 58.4798 12.0182 58.8518 11.4662C59.2238 10.9142 59.7458 10.4942 60.4178 10.2062C61.0898 9.90618 61.8578 9.75618 62.7218 9.75618C64.0178 9.75618 65.0678 10.0742 65.8718 10.7102C66.6878 11.3342 67.1378 12.2102 67.2218 13.3382H64.4498C64.4258 12.9062 64.2398 12.5522 63.8918 12.2762C63.5558 11.9882 63.1058 11.8442 62.5418 11.8442C62.0498 11.8442 61.6538 11.9702 61.3538 12.2222C61.0658 12.4742 60.9218 12.8402 60.9218 13.3202C60.9218 13.6562 61.0298 13.9382 61.2458 14.1662C61.4738 14.3822 61.7498 14.5622 62.0738 14.7062C62.4098 14.8382 62.8778 14.9942 63.4778 15.1742C64.2938 15.4142 64.9598 15.6542 65.4758 15.8942C65.9918 16.1342 66.4358 16.4942 66.8078 16.9742C67.1798 17.4542 67.3658 18.0842 67.3658 18.8642C67.3658 19.5362 67.1918 20.1602 66.8438 20.7362C66.4958 21.3122 65.9858 21.7742 65.3138 22.1222C64.6418 22.4582 63.8438 22.6262 62.9198 22.6262Z" fill="#04303F"/>
<path d="M73.9786 22.6622C73.0186 22.6622 72.1546 22.4522 71.3866 22.0322C70.6186 21.6002 70.0126 20.9942 69.5686 20.2142C69.1366 19.4342 68.9206 18.5342 68.9206 17.5142C68.9206 16.4942 69.1426 15.5942 69.5866 14.8142C70.0426 14.0342 70.6606 13.4342 71.4406 13.0142C72.2206 12.5822 73.0906 12.3662 74.0506 12.3662C75.0106 12.3662 75.8806 12.5822 76.6606 13.0142C77.4406 13.4342 78.0526 14.0342 78.4966 14.8142C78.9526 15.5942 79.1806 16.4942 79.1806 17.5142C79.1806 18.5342 78.9466 19.4342 78.4786 20.2142C78.0226 20.9942 77.3986 21.6002 76.6066 22.0322C75.8266 22.4522 74.9506 22.6622 73.9786 22.6622ZM73.9786 20.4662C74.4346 20.4662 74.8606 20.3582 75.2566 20.1422C75.6646 19.9142 75.9886 19.5782 76.2286 19.1342C76.4686 18.6902 76.5886 18.1502 76.5886 17.5142C76.5886 16.5662 76.3366 15.8402 75.8326 15.3362C75.3406 14.8202 74.7346 14.5622 74.0146 14.5622C73.2946 14.5622 72.6886 14.8202 72.1966 15.3362C71.7166 15.8402 71.4766 16.5662 71.4766 17.5142C71.4766 18.4622 71.7106 19.1942 72.1786 19.7102C72.6586 20.2142 73.2586 20.4662 73.9786 20.4662Z" fill="#04303F"/>
<path d="M83.5491 9.18018V22.5002H81.0291V9.18018H83.5491Z" fill="#04303F"/>
<path d="M85.3908 17.4782C85.3908 16.4702 85.5888 15.5762 85.9848 14.7962C86.3928 14.0162 86.9388 13.4162 87.6228 12.9962C88.3188 12.5762 89.0928 12.3662 89.9448 12.3662C90.6888 12.3662 91.3368 12.5162 91.8888 12.8162C92.4528 13.1162 92.9028 13.4942 93.2388 13.9502V12.5282H95.7768V22.5002H93.2388V21.0422C92.9148 21.5102 92.4648 21.9002 91.8888 22.2122C91.3248 22.5122 90.6708 22.6622 89.9268 22.6622C89.0868 22.6622 88.3188 22.4462 87.6228 22.0142C86.9388 21.5822 86.3928 20.9762 85.9848 20.1962C85.5888 19.4042 85.3908 18.4982 85.3908 17.4782ZM93.2388 17.5142C93.2388 16.9022 93.1188 16.3802 92.8788 15.9482C92.6388 15.5042 92.3148 15.1682 91.9068 14.9402C91.4988 14.7002 91.0608 14.5802 90.5928 14.5802C90.1248 14.5802 89.6928 14.6942 89.2968 14.9222C88.9008 15.1502 88.5768 15.4862 88.3248 15.9302C88.0848 16.3622 87.9648 16.8782 87.9648 17.4782C87.9648 18.0782 88.0848 18.6062 88.3248 19.0622C88.5768 19.5062 88.9008 19.8482 89.2968 20.0882C89.7048 20.3282 90.1368 20.4482 90.5928 20.4482C91.0608 20.4482 91.4988 20.3342 91.9068 20.1062C92.3148 19.8662 92.6388 19.5302 92.8788 19.0982C93.1188 18.6542 93.2388 18.1262 93.2388 17.5142Z" fill="#04303F"/>
<path d="M100.758 14.0762C101.082 13.5482 101.502 13.1342 102.018 12.8342C102.546 12.5342 103.146 12.3842 103.818 12.3842V15.0302H103.152C102.36 15.0302 101.76 15.2162 101.352 15.5882C100.956 15.9602 100.758 16.6082 100.758 17.5322V22.5002H98.2381V12.5282H100.758V14.0762Z" fill="#04303F"/>
<path d="M7.99993 0H23.9999L25.4315 1.43158H6.56836L7.99993 0Z" fill="#04303F"/>
<path d="M24.0001 32H8.00006L6.56848 30.5684H25.4316L24.0001 32Z" fill="#04303F"/>
<path d="M32 7.99993L32 23.9999L30.5684 25.4315L30.5684 6.56836L32 7.99993Z" fill="#04303F"/>
<path d="M3.38302e-07 24.0001L4.11934e-06 8.00006L1.43158 6.56848L1.43158 25.4316L3.38302e-07 24.0001Z" fill="#04303F"/>
<path fill-rule="evenodd" clip-rule="evenodd" d="M16.9854 13.4891L15.9731 14.5013L4.71582 3.24227L4.96844 3.03175L6.52916 3.03281L16.6316 3.03281L16.6316 5.884C17.1308 6.13202 17.4738 6.64708 17.4738 7.24227C17.4738 8.07942 16.7952 8.75806 15.958 8.75806C15.1209 8.75806 14.4422 8.07942 14.4422 7.24227C14.4422 6.68124 14.747 6.19141 15.2 5.92931V4.46332L12.2956 4.46332L8.63161 4.46332L7.95967 4.46332L15.9731 12.4768L25.0948 3.35513L24.8842 3.03174L25.4182 3.03174H26.9895L27.1579 3.31303L16.9854 13.4891Z" fill="#04303F"/>
<path fill-rule="evenodd" clip-rule="evenodd" d="M14.8886 18.528L15.9009 17.5158L27.1582 28.7748L26.9056 28.9853L25.3449 28.9843L15.2424 28.9843L15.2424 26.1331C14.7433 25.885 14.4003 25.37 14.4003 24.7748C14.4003 23.9377 15.0789 23.259 15.9161 23.259C16.7532 23.259 17.4319 23.9377 17.4319 24.7748C17.4319 25.3359 17.1271 25.8257 16.674 26.0878V27.5538L19.5784 27.5538L23.2424 27.5538L23.9144 27.5538L15.9009 19.5403L6.77925 28.662L6.98978 28.9854L6.45586 28.9854L4.88452 28.9854L4.7161 28.7041L14.8886 18.528Z" fill="#04303F"/>
<path fill-rule="evenodd" clip-rule="evenodd" d="M18.4567 17.0572L17.4445 16.0449L28.7035 4.7876L28.9141 5.04022L28.913 6.60094L28.913 16.7034L26.0618 16.7034C25.8137 17.2025 25.2987 17.5455 24.7035 17.5455C23.8664 17.5455 23.1877 16.8669 23.1877 16.0297C23.1877 15.1926 23.8664 14.5139 24.7035 14.5139C25.2646 14.5139 25.7544 14.8187 26.0165 15.2718L27.4825 15.2718L27.4825 12.3674L27.4825 8.70339L27.4825 8.03145L19.469 16.0449L28.5907 25.1665L28.9141 24.956L28.9141 25.4899L28.9141 27.0613L28.6328 27.2297L18.4567 17.0572Z" fill="#04303F"/>
<path fill-rule="evenodd" clip-rule="evenodd" d="M13.4173 14.9599L14.4295 15.9722L3.17049 27.2295L2.95998 26.9769L2.96103 25.4162L2.96103 15.3137L5.81226 15.3137C6.0603 14.8146 6.57534 14.4716 7.17049 14.4716C8.00764 14.4716 8.68628 15.1502 8.68628 15.9874C8.68628 16.8245 8.00764 17.5032 7.17049 17.5032C6.60943 17.5032 6.11957 17.1984 5.85748 16.7453L4.39154 16.7453L4.39154 19.6497L4.39154 23.3137L4.39154 23.9856L12.405 15.9722L3.28335 6.85054L2.95996 7.06107L2.95996 6.52715L2.95996 4.95581L3.24125 4.78739L13.4173 14.9599Z" fill="#04303F"/>
</svg>
