<svg width="105" height="32" viewBox="0 0 105 32" fill="none" xmlns="http://www.w3.org/2000/svg">
<path d="M42.662 22.6261C41.786 22.6261 40.994 22.4761 40.286 22.1761C39.59 21.8761 39.038 21.4441 38.63 20.8801C38.222 20.3161 38.012 19.6501 38 18.8821H40.7C40.736 19.3981 40.916 19.8061 41.24 20.1061C41.576 20.4061 42.032 20.5561 42.608 20.5561C43.196 20.5561 43.658 20.4181 43.994 20.1421C44.33 19.8541 44.498 19.4821 44.498 19.0261C44.498 18.6541 44.384 18.3481 44.156 18.1081C43.928 17.8681 43.64 17.6821 43.292 17.5501C42.956 17.4061 42.488 17.2501 41.888 17.0821C41.072 16.8421 40.406 16.6081 39.89 16.3801C39.386 16.1401 38.948 15.7861 38.576 15.3181C38.216 14.8381 38.036 14.2021 38.036 13.4101C38.036 12.6661 38.222 12.0181 38.594 11.4661C38.966 10.9141 39.488 10.4941 40.16 10.2061C40.832 9.90605 41.6 9.75605 42.464 9.75605C43.76 9.75605 44.81 10.0741 45.614 10.7101C46.43 11.3341 46.88 12.2101 46.964 13.3381H44.192C44.168 12.9061 43.982 12.5521 43.634 12.2761C43.298 11.9881 42.848 11.8441 42.284 11.8441C41.792 11.8441 41.396 11.9701 41.096 12.2221C40.808 12.4741 40.664 12.8401 40.664 13.3201C40.664 13.6561 40.772 13.9381 40.988 14.1661C41.216 14.3821 41.492 14.5621 41.816 14.7061C42.152 14.8381 42.62 14.9941 43.22 15.1741C44.036 15.4141 44.702 15.6541 45.218 15.8941C45.734 16.1341 46.178 16.4941 46.55 16.9741C46.922 17.4541 47.108 18.0841 47.108 18.8641C47.108 19.5361 46.934 20.1601 46.586 20.7361C46.238 21.3121 45.728 21.7741 45.056 22.1221C44.384 22.4581 43.586 22.6261 42.662 22.6261Z" fill="white"/>
<path d="M51.8667 20.3761H57.5188V22.5001H48.9508V20.5561L54.5667 12.0601H48.9508V9.93605H57.5188V11.8801L51.8667 20.3761Z" fill="white"/>
<path d="M64.0018 22.6261C63.1258 22.6261 62.3338 22.4761 61.6258 22.1761C60.9298 21.8761 60.3778 21.4441 59.9698 20.8801C59.5618 20.3161 59.3518 19.6501 59.3398 18.8821H62.0398C62.0758 19.3981 62.2558 19.8061 62.5798 20.1061C62.9158 20.4061 63.3718 20.5561 63.9478 20.5561C64.5358 20.5561 64.9978 20.4181 65.3338 20.1421C65.6698 19.8541 65.8378 19.4821 65.8378 19.0261C65.8378 18.6541 65.7238 18.3481 65.4958 18.1081C65.2678 17.8681 64.9798 17.6821 64.6318 17.5501C64.2958 17.4061 63.8278 17.2501 63.2278 17.0821C62.4118 16.8421 61.7458 16.6081 61.2298 16.3801C60.7258 16.1401 60.2878 15.7861 59.9158 15.3181C59.5558 14.8381 59.3758 14.2021 59.3758 13.4101C59.3758 12.6661 59.5618 12.0181 59.9338 11.4661C60.3058 10.9141 60.8278 10.4941 61.4998 10.2061C62.1718 9.90605 62.9398 9.75605 63.8038 9.75605C65.0998 9.75605 66.1498 10.0741 66.9538 10.7101C67.7698 11.3341 68.2198 12.2101 68.3038 13.3381H65.5318C65.5078 12.9061 65.3218 12.5521 64.9738 12.2761C64.6378 11.9881 64.1878 11.8441 63.6238 11.8441C63.1318 11.8441 62.7358 11.9701 62.4358 12.2221C62.1478 12.4741 62.0038 12.8401 62.0038 13.3201C62.0038 13.6561 62.1118 13.9381 62.3278 14.1661C62.5558 14.3821 62.8318 14.5621 63.1558 14.7061C63.4918 14.8381 63.9598 14.9941 64.5598 15.1741C65.3758 15.4141 66.0418 15.6541 66.5578 15.8941C67.0738 16.1341 67.5178 16.4941 67.8898 16.9741C68.2618 17.4541 68.4478 18.0841 68.4478 18.8641C68.4478 19.5361 68.2738 20.1601 67.9258 20.7361C67.5778 21.3121 67.0678 21.7741 66.3958 22.1221C65.7238 22.4581 64.9258 22.6261 64.0018 22.6261Z" fill="#9FE221"/>
<path d="M75.0606 22.6621C74.1006 22.6621 73.2366 22.4521 72.4686 22.0321C71.7006 21.6001 71.0946 20.9941 70.6506 20.2141C70.2186 19.4341 70.0026 18.5341 70.0026 17.5141C70.0026 16.4941 70.2246 15.5941 70.6686 14.8141C71.1246 14.0341 71.7426 13.4341 72.5226 13.0141C73.3026 12.5821 74.1726 12.3661 75.1326 12.3661C76.0926 12.3661 76.9626 12.5821 77.7426 13.0141C78.5226 13.4341 79.1346 14.0341 79.5786 14.8141C80.0346 15.5941 80.2626 16.4941 80.2626 17.5141C80.2626 18.5341 80.0286 19.4341 79.5606 20.2141C79.1046 20.9941 78.4806 21.6001 77.6886 22.0321C76.9086 22.4521 76.0326 22.6621 75.0606 22.6621ZM75.0606 20.4661C75.5166 20.4661 75.9426 20.3581 76.3386 20.1421C76.7466 19.9141 77.0706 19.5781 77.3106 19.1341C77.5506 18.6901 77.6706 18.1501 77.6706 17.5141C77.6706 16.5661 77.4186 15.8401 76.9146 15.3361C76.4226 14.8201 75.8166 14.5621 75.0966 14.5621C74.3766 14.5621 73.7706 14.8201 73.2786 15.3361C72.7986 15.8401 72.5586 16.5661 72.5586 17.5141C72.5586 18.4621 72.7926 19.1941 73.2606 19.7101C73.7406 20.2141 74.3406 20.4661 75.0606 20.4661Z" fill="#9FE221"/>
<path d="M84.6311 9.18005V22.5001H82.1111V9.18005H84.6311Z" fill="#9FE221"/>
<path d="M86.4729 17.4781C86.4729 16.4701 86.6709 15.5761 87.0669 14.7961C87.4749 14.0161 88.0209 13.4161 88.7049 12.9961C89.4009 12.5761 90.1749 12.3661 91.0269 12.3661C91.7709 12.3661 92.4189 12.5161 92.9709 12.8161C93.5349 13.1161 93.9849 13.4941 94.3209 13.9501V12.5281H96.8589V22.5001H94.3209V21.0421C93.9969 21.5101 93.5469 21.9001 92.9709 22.2121C92.4069 22.5121 91.7529 22.6621 91.0089 22.6621C90.1689 22.6621 89.4009 22.4461 88.7049 22.0141C88.0209 21.5821 87.4749 20.9761 87.0669 20.1961C86.6709 19.4041 86.4729 18.4981 86.4729 17.4781ZM94.3209 17.5141C94.3209 16.9021 94.2009 16.3801 93.9609 15.9481C93.7209 15.5041 93.3969 15.1681 92.9889 14.9401C92.5809 14.7001 92.1429 14.5801 91.6749 14.5801C91.2069 14.5801 90.7749 14.6941 90.3789 14.9221C89.9829 15.1501 89.6589 15.4861 89.4069 15.9301C89.1669 16.3621 89.0469 16.8781 89.0469 17.4781C89.0469 18.0781 89.1669 18.6061 89.4069 19.0621C89.6589 19.5061 89.9829 19.8481 90.3789 20.0881C90.7869 20.3281 91.2189 20.4481 91.6749 20.4481C92.1429 20.4481 92.5809 20.3341 92.9889 20.1061C93.3969 19.8661 93.7209 19.5301 93.9609 19.0981C94.2009 18.6541 94.3209 18.1261 94.3209 17.5141Z" fill="#9FE221"/>
<path d="M101.84 14.0761C102.164 13.5481 102.584 13.1341 103.1 12.8341C103.628 12.5341 104.228 12.3841 104.9 12.3841V15.0301H104.234C103.442 15.0301 102.842 15.2161 102.434 15.5881C102.038 15.9601 101.84 16.6081 101.84 17.5321V22.5001H99.3201V12.5281H101.84V14.0761Z" fill="#9FE221"/>
<path d="M7.99993 0H23.9999L25.4315 1.43158H6.56836L7.99993 0Z" fill="#9FE221"/>
<path d="M24.0001 32H8.00006L6.56849 30.5684H25.4316L24.0001 32Z" fill="#9FE221"/>
<path d="M32 7.99993L32 23.9999L30.5684 25.4315L30.5684 6.56836L32 7.99993Z" fill="#9FE221"/>
<path d="M3.38302e-07 24.0001L4.11934e-06 8.00006L1.43158 6.56849L1.43158 25.4316L3.38302e-07 24.0001Z" fill="#9FE221"/>
<path fill-rule="evenodd" clip-rule="evenodd" d="M16.9854 13.4889L15.9731 14.5012L4.71582 3.24214L4.96844 3.03163L6.52916 3.03268L16.6316 3.03268L16.6316 5.88388C17.1308 6.1319 17.4738 6.64696 17.4738 7.24215C17.4738 8.07929 16.7952 8.75794 15.958 8.75794C15.1209 8.75794 14.4422 8.07929 14.4422 7.24215C14.4422 6.68112 14.747 6.19129 15.2 5.92919V4.4632L12.2956 4.4632L8.63161 4.4632L7.95967 4.4632L15.9731 12.4767L25.0948 3.35501L24.8842 3.03162L25.4182 3.03162H26.9895L27.1579 3.31291L16.9854 13.4889Z" fill="#9FE221"/>
<path fill-rule="evenodd" clip-rule="evenodd" d="M14.8884 18.528L15.9007 17.5158L27.158 28.7748L26.9053 28.9853L25.3446 28.9843L15.2422 28.9843L15.2422 26.1331C14.7431 25.885 14.4 25.37 14.4 24.7748C14.4 23.9377 15.0787 23.259 15.9158 23.259C16.753 23.259 17.4316 23.9377 17.4316 24.7748C17.4316 25.3359 17.1268 25.8257 16.6737 26.0878V27.5538L19.5781 27.5538L23.2422 27.5538L23.9141 27.5538L15.9007 19.5403L6.77901 28.662L6.98954 28.9854L6.45562 28.9854L4.88427 28.9854L4.71585 28.7041L14.8884 18.528Z" fill="#9FE221"/>
<path fill-rule="evenodd" clip-rule="evenodd" d="M18.4565 17.0571L17.4442 16.0448L28.7033 4.78748L28.9138 5.0401L28.9128 6.60082L28.9128 16.7033L26.0615 16.7033C25.8135 17.2024 25.2984 17.5454 24.7033 17.5454C23.8661 17.5454 23.1875 16.8667 23.1875 16.0296C23.1875 15.1924 23.8661 14.5138 24.7033 14.5138C25.2643 14.5138 25.7542 14.8186 26.0163 15.2717L27.4822 15.2717L27.4822 12.3673L27.4822 8.70327L27.4822 8.03132L19.4688 16.0448L28.5904 25.1664L28.9138 24.9559L28.9138 25.4898L28.9138 27.0612L28.6325 27.2296L18.4565 17.0571Z" fill="#9FE221"/>
<path fill-rule="evenodd" clip-rule="evenodd" d="M13.4173 14.9599L14.4295 15.9722L3.17049 27.2295L2.95998 26.9769L2.96103 25.4162L2.96103 15.3137L5.81226 15.3137C6.0603 14.8146 6.57534 14.4716 7.17049 14.4716C8.00764 14.4716 8.68628 15.1502 8.68628 15.9874C8.68628 16.8245 8.00764 17.5032 7.17049 17.5032C6.60943 17.5032 6.11957 17.1984 5.85748 16.7453L4.39154 16.7453L4.39154 19.6497L4.39154 23.3137L4.39154 23.9856L12.405 15.9722L3.28335 6.85054L2.95996 7.06107L2.95996 6.52715L2.95996 4.95581L3.24125 4.78739L13.4173 14.9599Z" fill="#9FE221"/>
</svg>
