<svg width="283" height="29" viewBox="0 0 283 29" fill="none" xmlns="http://www.w3.org/2000/svg">
<g clip-path="url(#clip0_64_2941)">
<path opacity="0.908" fill-rule="evenodd" clip-rule="evenodd" d="M0.550659 -0.221924C12.6443 -0.221924 24.7378 -0.221924 36.8314 -0.221924C36.6303 1.98816 35.5309 3.72149 33.5331 4.97808C29.6949 5.3774 25.847 5.51073 21.9893 5.37808C21.9893 12.8447 21.9893 20.3114 21.9893 27.7781C19.7904 27.7781 17.5916 27.7781 15.3928 27.7781C15.3928 20.3114 15.3928 12.8447 15.3928 5.37808C11.5351 5.51073 7.68707 5.3774 3.8489 4.97808C2.85525 3.87759 1.75584 2.94426 0.550659 2.17808C0.550659 1.37808 0.550659 0.578076 0.550659 -0.221924Z" fill="#D9F4FD"/>
<path opacity="0.962" fill-rule="evenodd" clip-rule="evenodd" d="M64.8665 -0.221924C76.1355 -0.221924 87.4042 -0.221924 98.6735 -0.221924C97.7928 1.83823 96.4183 3.57156 94.5507 4.97808C86.0305 5.51141 77.5097 5.51141 68.9893 4.97808C66.521 4.05125 65.1467 2.31792 64.8665 -0.221924Z" fill="#D9F4FD"/>
<path opacity="0.947" fill-rule="evenodd" clip-rule="evenodd" d="M128.358 -0.221924C139.077 -0.221924 149.796 -0.221924 160.516 -0.221924C159.616 2.12032 157.967 3.85366 155.568 4.97808C148.702 5.37786 141.831 5.5112 134.954 5.37808C134.954 7.24474 134.954 9.11144 134.954 10.9781C143.474 10.9781 151.995 10.9781 160.516 10.9781C160.516 16.5781 160.516 22.1781 160.516 27.7781C149.246 27.7781 137.978 27.7781 126.708 27.7781C128.188 25.9408 129.837 24.2074 131.656 22.5781C139.072 22.1782 146.493 22.045 153.919 22.1781C153.919 20.3114 153.919 18.4447 153.919 16.5781C145.399 16.5781 136.878 16.5781 128.358 16.5781C128.358 10.9781 128.358 5.37808 128.358 -0.221924Z" fill="#D9F4FD"/>
<path opacity="0.921" fill-rule="evenodd" clip-rule="evenodd" d="M191.024 -0.221924C193.223 -0.221924 195.422 -0.221924 197.621 -0.221924C197.621 7.24474 197.621 14.7114 197.621 22.1781C205.866 22.1781 214.112 22.1781 222.358 22.1781C221.978 24.4207 220.878 26.2874 219.059 27.7781C209.715 27.7781 200.369 27.7781 191.024 27.7781C191.024 18.4447 191.024 9.11144 191.024 -0.221924Z" fill="#D9F4FD"/>
<path opacity="0.974" fill-rule="evenodd" clip-rule="evenodd" d="M248.744 -0.221924C260.013 -0.221924 271.281 -0.221924 282.551 -0.221924C282.551 0.0447426 282.551 0.31141 282.551 0.578076C281.371 2.12765 279.996 3.59432 278.428 4.97808C269.908 5.51141 261.387 5.51141 252.866 4.97808C250.999 3.57156 249.624 1.83823 248.744 -0.221924Z" fill="#D9F4FD"/>
<path opacity="0.842" fill-rule="evenodd" clip-rule="evenodd" d="M64.8665 10.178C76.1488 9.912 87.4182 10.1786 98.6735 10.978C97.736 13.3538 96.0868 15.0872 93.7261 16.178C85.4805 16.7114 77.2349 16.7114 68.9893 16.178C66.7283 14.6689 65.354 12.6689 64.8665 10.178Z" fill="#D9F4FD"/>
<path opacity="0.916" fill-rule="evenodd" clip-rule="evenodd" d="M281.726 27.778C279.527 27.778 277.329 27.778 275.13 27.778C275.13 24.0447 275.13 20.3114 275.13 16.578C268.808 16.578 262.487 16.578 256.165 16.578C256.165 20.3114 256.165 24.0447 256.165 27.778C253.966 27.778 251.767 27.778 249.568 27.778C249.568 22.178 249.568 16.578 249.568 10.978C260.287 10.978 271.007 10.978 281.726 10.978C281.726 16.578 281.726 22.178 281.726 27.778Z" fill="#D9F4FD"/>
<path opacity="0.969" fill-rule="evenodd" clip-rule="evenodd" d="M94.5507 27.7779C86.0305 27.7779 77.5097 27.7779 68.9893 27.7779C67.634 26.1934 66.2597 24.5934 64.8665 22.9779C76.1254 22.0451 87.3943 21.9118 98.6735 22.5779C97.4375 24.4403 96.0629 26.1736 94.5507 27.7779Z" fill="#D9F4FD"/>
</g>
<defs>
<clipPath id="clip0_64_2941">
<rect width="282" height="28" fill="white" transform="translate(0.962891 0.177979)"/>
</clipPath>
</defs>
</svg>
