<?xml version="1.0" standalone="no"?>
<!DOCTYPE svg PUBLIC "-//W3C//DTD SVG 20010904//EN"
 "http://www.w3.org/TR/2001/REC-SVG-20010904/DTD/svg10.dtd">
<svg version="1.0" xmlns="http://www.w3.org/2000/svg"
 width="700.000000pt" height="700.000000pt" viewBox="0 0 700.000000 700.000000"
 preserveAspectRatio="xMidYMid meet">
<metadata>
Created by potrace 1.14, written by Peter Selinger 2001-2017
</metadata>
<g transform="translate(0.000000,700.000000) scale(0.100000,-0.100000)"
fill="#000000" stroke="none">
<path d="M1592 6844 c-83 -85 -146 -154 -140 -155 43 -3 4085 -4 4095 -1 7 2
-57 73 -142 158 l-154 154 -1753 -1 -1753 -1 -153 -154z"/>
<path d="M1064 6317 c-14 -10 -23 -24 -22 -29 2 -6 555 -561 1228 -1234 l1224
-1225 1225 1225 1224 1224 -21 29 -20 28 -226 1 c-124 0 -226 -1 -226 -4 0 -3
9 -19 20 -36 l19 -32 -997 -997 -997 -997 -877 877 -878 878 783 -1 c430 -1
787 -2 792 -3 7 -1 10 -59 10 -158 l0 -158 -37 -27 c-76 -56 -120 -144 -124
-254 -3 -71 0 -87 25 -140 100 -212 366 -265 529 -106 75 74 97 128 97 242 0
92 -2 98 -35 154 -34 56 -70 94 -118 126 l-23 15 -2 310 -2 310 -1273 1
c-1245 0 -1274 0 -1298 -19z"/>
<path d="M678 5934 c-17 -9 -28 -23 -29 -37 -1 -37 -1 -114 0 -280 l1 -159 34
22 35 21 997 -997 996 -996 -38 -40 c-70 -72 -1686 -1687 -1700 -1699 -11 -9
-14 115 -14 778 l0 790 158 -1 157 -1 55 -55 c74 -75 135 -103 228 -105 142
-5 259 71 319 205 11 23 17 65 17 120 0 71 -4 94 -25 140 -110 233 -429 260
-575 48 l-27 -38 -308 0 -309 0 -1 -282 c0 -156 0 -730 0 -1276 0 -937 1 -994
18 -1017 10 -13 22 -25 26 -25 10 0 2457 2446 2457 2457 0 8 -2433 2443 -2441
2443 -2 -1 -16 -8 -31 -16z"/>
<path d="M5045 4720 l-1230 -1230 1222 -1222 1222 -1222 33 16 33 15 0 227 c0
147 -3 226 -10 226 -5 0 -19 -7 -29 -15 -11 -8 -24 -15 -28 -15 -5 0 -457 448
-1005 995 l-995 996 437 437 c241 240 635 634 876 876 l439 439 0 -792 0 -791
-157 0 -158 0 -43 50 c-82 95 -199 132 -325 103 -98 -22 -179 -87 -221 -178
-101 -214 45 -458 282 -470 114 -6 215 42 283 135 l34 46 303 -1 c192 0 306 4
311 10 4 5 7 579 7 1275 -1 1247 -1 1265 -21 1292 -11 15 -22 28 -25 28 -3 0
-559 -554 -1235 -1230z"/>
<path d="M155 5405 l-155 -155 0 -1750 0 -1749 156 -155 c86 -86 156 -156 157
-156 1 0 2 927 2 2060 0 1133 -1 2060 -2 2060 -1 0 -72 -70 -158 -155z"/>
<path d="M6685 3501 c0 -1805 2 -2058 15 -2048 8 7 79 76 157 155 l143 143 0
1750 0 1750 -154 154 c-85 85 -156 155 -158 155 -2 0 -3 -927 -3 -2059z"/>
<path d="M2248 1939 l-1217 -1220 17 -29 17 -30 233 0 233 0 -20 29 c-12 16
-21 33 -21 38 0 9 1974 1986 1988 1991 4 1 400 -391 881 -872 l874 -874 -793
2 -793 1 0 159 c1 144 3 161 19 173 42 29 87 81 112 128 24 44 27 61 27 145 0
110 -20 161 -88 231 -90 92 -232 124 -349 79 -75 -28 -150 -96 -185 -168 -24
-49 -28 -69 -28 -142 0 -73 4 -93 29 -142 26 -54 87 -121 132 -146 18 -10 19
-24 19 -319 l0 -308 1273 -3 1274 -2 30 21 30 22 -1228 1228 c-676 676 -1233
1229 -1239 1228 -5 0 -558 -549 -1227 -1220z"/>
<path d="M1451 312 c-5 -2 60 -73 145 -158 l155 -154 1749 0 1749 0 156 155
c85 85 150 155 143 156 -40 2 -4090 3 -4097 1z"/>
</g>
</svg>
